<svg width="15" height="10" viewBox="0 0 15 10" fill="none" xmlns="http://www.w3.org/2000/svg">
<path fill-rule="evenodd" clip-rule="evenodd" d="M15 5.00002C15 4.85795 14.9436 4.7217 14.8431 4.62124C14.7426 4.52078 14.6064 4.46434 14.4643 4.46434H1.82977L5.20134 1.09384C5.30193 0.993255 5.35843 0.85683 5.35843 0.714579C5.35843 0.572329 5.30193 0.435904 5.20134 0.335318C5.10075 0.234731 4.96433 0.178223 4.82208 0.178223C4.67983 0.178223 4.5434 0.234731 4.44282 0.335318L0.157375 4.62076C0.10749 4.67052 0.0679102 4.72963 0.040905 4.79471C0.0138998 4.85979 -9.53674e-07 4.92956 -9.53674e-07 5.00002C-9.53674e-07 5.07048 0.0138998 5.14025 0.040905 5.20533C0.0679102 5.27041 0.10749 5.32952 0.157375 5.37928L4.44282 9.66472C4.5434 9.76531 4.67983 9.82182 4.82208 9.82182C4.96433 9.82182 5.10075 9.76531 5.20134 9.66472C5.30193 9.56414 5.35843 9.42771 5.35843 9.28546C5.35843 9.14321 5.30193 9.00679 5.20134 8.9062L1.82977 5.5357H14.4643C14.6064 5.5357 14.7426 5.47926 14.8431 5.3788C14.9436 5.27834 15 5.14209 15 5.00002Z" fill="#333333"/>
</svg>
