<svg width="21" height="20" viewBox="0 0 21 20" fill="none" xmlns="http://www.w3.org/2000/svg">
<path d="M10.5 0C4.98 0 0.5 4.48 0.5 10C0.5 15.52 4.98 20 10.5 20C16.02 20 20.5 15.52 20.5 10C20.5 4.48 16.02 0 10.5 0ZM9.5 17.93C5.55 17.44 2.5 14.08 2.5 10C2.5 9.38 2.58 8.79 2.71 8.21L7.5 13V14C7.5 15.1 8.4 16 9.5 16V17.93ZM16.4 15.39C16.14 14.58 15.4 14 14.5 14H13.5V11C13.5 10.45 13.05 10 12.5 10H6.5V8H8.5C9.05 8 9.5 7.55 9.5 7V5H11.5C12.6 5 13.5 4.1 13.5 3V2.59C16.43 3.78 18.5 6.65 18.5 10C18.5 12.08 17.7 13.97 16.4 15.39Z" fill="#FA8B02"/>
</svg>
