<svg width="23" height="20" viewBox="0 0 23 20" fill="none" xmlns="http://www.w3.org/2000/svg">
<path d="M3.76628 0.833008C2.79382 0.833008 1.86118 1.21932 1.17355 1.90695C0.485918 2.59458 0.0996094 3.52721 0.0996094 4.49967V4.86818L11.0996 10.7917L22.0996 4.87001V4.49967C22.0996 3.52721 21.7133 2.59458 21.0257 1.90695C20.338 1.21932 19.4054 0.833008 18.4329 0.833008H3.76628ZM22.0996 6.95084L11.5341 12.6397C11.4006 12.7116 11.2513 12.7492 11.0996 12.7492C10.9479 12.7492 10.7987 12.7116 10.6651 12.6397L0.0996094 6.95084V15.4997C0.0996094 16.4721 0.485918 17.4048 1.17355 18.0924C1.86118 18.78 2.79382 19.1663 3.76628 19.1663H18.4329C19.4054 19.1663 20.338 18.78 21.0257 18.0924C21.7133 17.4048 22.0996 16.4721 22.0996 15.4997V6.95084Z" fill="#FA8B02"/>
</svg>
