<svg width="19" height="18" viewBox="0 0 19 18" fill="none" xmlns="http://www.w3.org/2000/svg">
<path d="M18.4982 9.71874C18.4982 12.0354 18.4982 14.3522 18.4982 16.6689C18.4982 17.6115 18.0021 17.9814 17.1061 17.7002C15.6882 17.2567 14.272 16.8063 12.8577 16.3492C12.6242 16.269 12.3711 16.2668 12.1363 16.3429C10.3787 16.8802 8.61486 17.4041 6.85964 17.9414C6.62625 18.0195 6.37388 18.0195 6.14049 17.9414C4.52848 17.419 2.91255 16.91 1.29662 16.3979C0.696416 16.2038 0.5 15.9446 0.5 15.3084C0.5 10.6357 0.5 5.96246 0.5 1.28872C0.5 0.402668 1.00708 0.021699 1.85378 0.285628C3.28529 0.73127 4.71394 1.18555 6.13971 1.64848C6.3734 1.72876 6.62662 1.73151 6.86199 1.65633C8.61955 1.11905 10.3834 0.595116 12.1386 0.0586176C12.372 -0.0195392 12.6244 -0.0195392 12.8577 0.0586176C14.4698 0.580192 16.0865 1.08841 17.7016 1.60213C18.3065 1.79458 18.499 2.05537 18.4998 2.68927C18.4988 5.03269 18.4982 7.37584 18.4982 9.71874ZM12.1957 9.94339V4.99472C12.1957 4.19822 12.1957 4.19822 11.4132 4.3294C11.4007 4.3294 11.3882 4.33568 11.3756 4.33804C11.1949 4.37182 11.0626 4.30505 11.0063 4.13067C10.993 4.09359 10.9879 4.05409 10.9912 4.01484C10.9946 3.9756 11.0063 3.93754 11.0256 3.90325C11.0449 3.86896 11.0713 3.83925 11.1031 3.81614C11.1349 3.79303 11.1713 3.77707 11.2097 3.76933C11.4343 3.70155 11.6645 3.65423 11.8976 3.62794C12.1284 3.60516 12.2004 3.50776 12.1973 3.2784C12.1848 2.53217 12.1801 1.78594 12.1973 1.0405C12.2051 0.73415 12.1143 0.697232 11.8405 0.781281C10.2965 1.25651 8.74945 1.72388 7.19847 2.17555C6.89407 2.26353 6.79782 2.39706 6.7986 2.71833C6.8119 6.35678 6.80721 9.99445 6.80721 13.6368C6.80721 13.7028 6.80721 13.768 6.80721 13.8332C6.80095 13.9982 6.83303 14.1152 7.04197 14.0916C7.21647 14.072 7.35498 14.1427 7.38002 14.3359C7.4035 14.5457 7.27673 14.6588 7.08423 14.6753C6.84242 14.6965 6.79782 14.8284 6.80173 15.0444C6.81269 15.6854 6.81895 16.3272 6.80173 16.9681C6.79234 17.2768 6.88859 17.3098 7.16013 17.2266C8.71633 16.7474 10.2762 16.2785 11.8397 15.8197C12.1151 15.7412 12.2051 15.6155 12.2035 15.3296C12.191 13.5292 12.1973 11.7367 12.1973 9.94339H12.1957ZM12.7951 0.683878C12.7951 1.61627 12.7998 2.49054 12.7951 3.36637C12.7951 3.56432 12.8984 3.60909 13.0549 3.62952C13.3144 3.66115 13.5671 3.7349 13.803 3.84788C13.9596 3.92644 14.0378 4.06154 13.9674 4.23671C13.8969 4.41188 13.7569 4.45744 13.5816 4.40324C13.4446 4.36082 13.3069 4.32469 13.1731 4.27206C12.8953 4.16209 12.7858 4.21393 12.7858 4.54777C12.7967 8.16108 12.7967 11.772 12.7858 15.3806C12.7858 15.6163 12.8546 15.7223 13.0855 15.793C14.494 16.2266 15.8924 16.6799 17.2963 17.1213C17.772 17.2713 17.8918 17.1834 17.8918 16.6869C17.8918 12.0299 17.8941 7.3727 17.8988 2.71519C17.8988 2.39392 17.7752 2.24939 17.4802 2.16062C16.5583 1.88177 15.6428 1.57857 14.7241 1.28793C14.0973 1.08841 13.4666 0.892822 12.7951 0.683878ZM1.10333 8.28284V9.03221C1.10333 11.1002 1.10333 13.1687 1.10333 15.2377C1.10333 15.4788 1.09316 15.7027 1.39835 15.7977C2.91594 16.269 4.43144 16.7503 5.94486 17.2415C6.16005 17.3106 6.21327 17.2478 6.21014 17.0326C6.19918 16.3782 6.20544 15.7231 6.21014 15.0688C6.21014 14.8983 6.21014 14.7546 6.02702 14.6399C5.84391 14.5252 5.84469 14.3014 6.03407 14.1867C6.22344 14.072 6.20935 13.9212 6.20935 13.7531C6.20935 10.0486 6.21118 6.34421 6.21483 2.63978C6.21483 2.38763 6.13658 2.27374 5.89712 2.19911C4.51048 1.76944 3.134 1.32485 1.75205 0.890465C1.20428 0.717655 1.10255 0.794634 1.10177 1.37119C1.10229 3.67534 1.10281 5.97922 1.10333 8.28284Z" fill="#333333"/>
<path d="M10.6852 4.55479C10.679 4.72839 10.2157 5.34029 10.0819 5.36229C9.85886 5.39999 9.73209 5.29395 9.72662 5.06772C9.72114 4.86114 10.1312 4.33249 10.3245 4.29479C10.5491 4.25159 10.6664 4.36077 10.6852 4.55479Z" fill="#333333"/>
<path d="M9.80603 8.4038C9.80603 8.48235 9.80603 8.5609 9.80603 8.63945C9.80603 8.8319 9.72307 8.98271 9.52038 8.99057C9.29421 8.99999 9.20734 8.84132 9.20186 8.63316C9.19769 8.47606 9.19769 8.31896 9.20186 8.16186C9.20186 7.97098 9.28012 7.82174 9.48673 7.81388C9.72151 7.80446 9.79977 7.95999 9.80603 8.16815C9.80603 8.2467 9.80603 8.32525 9.80603 8.4038Z" fill="#333333"/>
<path d="M9.1674 10.2396C9.21827 9.97877 9.10166 9.61116 9.49688 9.62373C9.91791 9.64101 9.77 10.0165 9.78174 10.2647C9.78283 10.3561 9.77338 10.4473 9.75357 10.5365C9.74699 10.6094 9.71248 10.6769 9.6573 10.7248C9.60213 10.7727 9.53059 10.7973 9.45775 10.7933C9.27462 10.7878 9.17914 10.6708 9.16818 10.4886C9.1627 10.3982 9.1674 10.3063 9.1674 10.2396Z" fill="#333333"/>
<path d="M9.89072 6.41718C9.87272 6.56014 9.8555 6.70231 9.8375 6.84528C9.81246 7.05186 9.72324 7.20582 9.49081 7.17754C9.28029 7.15241 9.22629 6.98981 9.24038 6.80129C9.25212 6.64419 9.2662 6.48709 9.29046 6.32999C9.32255 6.13204 9.40864 5.96708 9.64342 6.00007C9.8782 6.03307 9.91576 6.21609 9.89072 6.41718Z" fill="#333333"/>
<path d="M9.58109 11.8772C9.54509 12.0006 9.49266 12.215 9.41674 12.4208C9.40652 12.4556 9.38922 12.4879 9.36593 12.5156C9.34264 12.5434 9.31386 12.566 9.28143 12.582C9.249 12.598 9.2136 12.6071 9.17749 12.6087C9.14138 12.6103 9.10533 12.6044 9.07162 12.5913C9.03662 12.5824 9.00369 12.5668 8.97472 12.5452C8.94575 12.5236 8.9213 12.4965 8.90277 12.4654C8.88424 12.4344 8.87199 12.3999 8.86672 12.3641C8.86145 12.3283 8.86326 12.2918 8.87205 12.2566C8.90805 12.0532 8.9644 11.8529 9.01918 11.6526C9.0677 11.4766 9.19135 11.3902 9.37057 11.4287C9.54979 11.4672 9.60848 11.6094 9.58109 11.8772Z" fill="#333333"/>
<path d="M8.88812 13.3988C8.88264 13.6721 8.44599 14.1238 8.24409 14.1144C8.20487 14.1162 8.16571 14.1097 8.12915 14.0954C8.09259 14.081 8.05946 14.059 8.03191 14.031C8.00437 14.0029 7.98304 13.9693 7.96931 13.9323C7.95557 13.8954 7.94975 13.856 7.95221 13.8167C7.94595 13.6407 8.43268 13.1513 8.60093 13.1568C8.67038 13.1533 8.73859 13.1763 8.79186 13.2212C8.84513 13.2661 8.87951 13.3295 8.88812 13.3988Z" fill="#333333"/>
<path d="M15.28 5.39369C15.2786 5.45283 15.2595 5.51019 15.2252 5.55826C15.1908 5.60634 15.1428 5.64288 15.0875 5.66311C15.0274 5.69057 14.9593 5.69477 14.8963 5.67491C14.8333 5.65505 14.7799 5.61252 14.7463 5.5555C14.6015 5.35598 14.4646 5.15018 14.3276 4.94438C14.2876 4.89185 14.2687 4.82621 14.2745 4.76036C14.2803 4.69451 14.3104 4.63322 14.3589 4.58854C14.3977 4.54389 14.4495 4.5127 14.507 4.49943C14.5645 4.48617 14.6247 4.49152 14.679 4.51471C14.8597 4.57755 15.2901 5.20752 15.28 5.39369Z" fill="#333333"/>
<path d="M15.1903 7.16743C15.1752 7.07733 15.1671 6.98621 15.166 6.89486C15.1746 6.73383 15.2568 6.61522 15.4235 6.59872C15.4627 6.59227 15.5027 6.59415 15.5411 6.60424C15.5795 6.61433 15.6154 6.6324 15.6463 6.65728C15.6773 6.68216 15.7028 6.7133 15.721 6.74868C15.7392 6.78406 15.7499 6.82289 15.7522 6.86265C15.7811 7.05664 15.796 7.25249 15.7968 7.44864C15.7968 7.64344 15.7013 7.78955 15.4971 7.78719C15.2928 7.78483 15.2083 7.63716 15.2044 7.44235C15.2044 7.35045 15.2044 7.25933 15.2044 7.16743H15.1903Z" fill="#333333"/>
<path d="M15.8129 8.99447C15.8104 9.1103 15.8021 9.22592 15.7878 9.34088C15.7841 9.37676 15.7734 9.41154 15.7562 9.44322C15.739 9.47489 15.7157 9.50283 15.6877 9.52541C15.6597 9.54798 15.6274 9.56475 15.5929 9.57474C15.5584 9.58473 15.5222 9.58774 15.4865 9.5836C15.4506 9.58444 15.415 9.57804 15.3816 9.56477C15.3483 9.5515 15.3179 9.53163 15.2924 9.50635C15.2668 9.48107 15.2466 9.45089 15.2329 9.41761C15.2192 9.38432 15.2123 9.34861 15.2126 9.3126C15.2024 9.13194 15.2079 8.95049 15.2056 8.76982C15.2056 8.57737 15.2744 8.42734 15.4779 8.41399C15.7049 8.39985 15.791 8.55381 15.8035 8.76118C15.8074 8.83973 15.8035 8.91828 15.8035 8.99683L15.8129 8.99447Z" fill="#333333"/>
<path d="M15.2061 10.6362C15.1928 10.4202 15.2421 10.216 15.4894 10.2105C15.7625 10.2042 15.8025 10.4249 15.8025 10.6503C15.8025 10.8758 15.7594 11.1012 15.4894 11.0949C15.2194 11.0887 15.1936 10.8585 15.2061 10.6362Z" fill="#333333"/>
<path d="M3.39543 12.3368C3.38616 12.2654 3.4044 12.1931 3.44644 12.1347C3.48847 12.0763 3.55112 12.0362 3.6216 12.0226C3.68433 12.0012 3.75292 12.005 3.81291 12.0333C3.8729 12.0615 3.91963 12.1121 3.94325 12.1742C4.03613 12.4021 4.11454 12.6356 4.17803 12.8733C4.21872 13.0304 4.12481 13.1506 3.97611 13.2056C3.82742 13.2606 3.72803 13.1844 3.64351 13.0736C3.57699 12.9912 3.40012 12.4468 3.39543 12.3368Z" fill="#333333"/>
<path d="M3.78689 9.02358C3.79322 9.12821 3.79322 9.23314 3.78689 9.33778C3.78099 9.40479 3.75019 9.46713 3.7006 9.51239C3.65101 9.55765 3.58626 9.58253 3.51924 9.58207C3.4835 9.58782 3.44697 9.58621 3.41187 9.57735C3.37677 9.56848 3.34383 9.55254 3.31506 9.5305C3.28629 9.50846 3.26229 9.48077 3.24452 9.44913C3.22674 9.41748 3.21557 9.38253 3.21167 9.34642C3.19287 9.15116 3.18816 8.9548 3.19759 8.75886C3.20307 8.56877 3.28446 8.41638 3.49498 8.41638C3.72976 8.41638 3.79941 8.57977 3.79471 8.79028C3.79471 8.86883 3.79471 8.94738 3.79471 9.02593L3.78689 9.02358Z" fill="#333333"/>
<path d="M3.80629 10.8546C3.80629 10.9457 3.81255 11.0368 3.80629 11.1272C3.80653 11.1635 3.79942 11.1995 3.78537 11.2329C3.77133 11.2664 3.75065 11.2967 3.72459 11.3219C3.69853 11.3471 3.66763 11.3667 3.63378 11.3795C3.59993 11.3924 3.56383 11.3982 3.52768 11.3966C3.49185 11.3994 3.45583 11.3949 3.42176 11.3834C3.38768 11.372 3.35625 11.3538 3.32932 11.3299C3.30238 11.306 3.2805 11.2769 3.26497 11.2444C3.24944 11.2119 3.24058 11.1765 3.2389 11.1405C3.21777 10.9598 3.20838 10.7768 3.20212 10.5907C3.19508 10.3856 3.26786 10.2121 3.49403 10.2066C3.7202 10.2011 3.79846 10.3692 3.79924 10.5765C3.79924 10.6676 3.79924 10.7595 3.79924 10.8507L3.80629 10.8546Z" fill="#333333"/>
<path d="M5.01432 14.4105C4.75139 14.4208 4.23179 14.0178 4.24118 13.8167C4.23907 13.7804 4.24423 13.744 4.25634 13.7097C4.26845 13.6755 4.28728 13.644 4.31171 13.6171C4.33614 13.5902 4.36568 13.5685 4.39859 13.5533C4.4315 13.5381 4.46711 13.5296 4.50333 13.5284C4.70914 13.5033 5.27021 13.9212 5.27569 14.1003C5.28002 14.1381 5.27658 14.1764 5.2656 14.2128C5.25462 14.2493 5.23632 14.2831 5.21183 14.3121C5.18735 14.3412 5.15719 14.3649 5.12322 14.3819C5.08926 14.3988 5.05219 14.4085 5.01432 14.4105Z" fill="#333333"/>
</svg>
