<svg width="25" height="16" viewBox="0 0 25 16" fill="none" xmlns="http://www.w3.org/2000/svg">
<path d="M8.42817 3.73351C9.12437 1.29281 10.5301 0.0724604 12.56 0.0924661C14.5246 0.112472 15.9277 1.3635 16.5705 3.73884C16.6559 3.49477 16.7119 3.32539 16.7732 3.15734C17.252 1.86631 18.179 1.09675 19.542 0.984722C20.7957 0.883359 21.8093 1.43418 22.4415 2.5225C23.1257 3.6935 23.0484 4.87517 22.2401 5.96081C21.96 6.33559 21.9827 6.43695 22.3988 6.64768C23.7966 7.35188 24.4821 8.52688 24.4968 10.0887C24.5154 12.0039 24.5141 12.0052 22.6656 12.6134C22.1827 12.7845 21.6821 12.9004 21.1732 12.9588C20.8677 12.9868 20.625 12.8868 20.577 12.568C20.529 12.2493 20.7317 12.0679 21.0304 12.0185C21.7556 11.91 22.4627 11.7036 23.1324 11.405C23.3098 11.3237 23.5325 11.2717 23.5325 11.0116C23.5325 10.2807 23.6259 9.5365 23.2924 8.84697C22.8803 7.99473 22.2321 7.4079 21.2705 7.2932C20.2753 7.1885 19.2721 7.18582 18.2763 7.28519C18.0118 7.31693 17.7544 7.39266 17.5148 7.50926C16.7346 7.86269 16.7252 7.98139 17.3134 8.60024C18.1173 9.41698 18.5896 10.5029 18.6391 11.6478C18.6631 12.1813 18.5831 12.7228 18.6604 13.2482C18.7938 14.1192 18.3804 14.5019 17.6255 14.8194C14.0138 16.3371 10.4581 16.2718 6.91841 14.5966C6.49562 14.3966 6.31423 14.1445 6.34758 13.6737C6.38492 13.1402 6.36225 12.6067 6.34758 12.0732C6.32357 10.6061 6.82638 9.36846 7.91603 8.39884C8.2788 8.07609 8.16143 7.93204 7.85468 7.71598C6.84505 7.00378 3.58679 7.01978 2.58917 7.75199C1.68891 8.41752 1.16743 9.9833 1.47151 11.0556C1.54087 11.2957 1.73826 11.3437 1.90764 11.421C2.5365 11.7034 3.2011 11.8981 3.88287 11.9999C4.19763 12.0466 4.46704 12.1826 4.42303 12.5454C4.37368 12.9455 4.06026 12.9962 3.71749 12.9455C2.69586 12.7948 1.74493 12.4307 0.821995 11.9825C0.737409 11.9512 0.663762 11.8959 0.610012 11.8234C0.556263 11.751 0.524727 11.6645 0.519241 11.5744C0.531245 10.5368 0.367198 9.48582 0.821995 8.48687C1.19136 7.64323 1.86045 6.96653 2.69987 6.58766C2.96661 6.46362 3.09998 6.39694 2.85724 6.08352C1.96365 4.95519 1.84629 3.72417 2.5905 2.48248C3.23602 1.40618 4.25364 0.863354 5.50734 0.99139C6.98909 1.1421 7.91869 2.02102 8.31881 3.45476C8.33615 3.51745 8.36949 3.57613 8.42817 3.73351ZM12.504 8.1281C11.9705 8.1281 11.437 8.10943 10.9035 8.1281C9.96236 8.17327 9.07244 8.5702 8.41 9.2403C7.74755 9.91041 7.36087 10.8048 7.32652 11.7465C7.31185 12.1906 7.35587 12.6387 7.30785 13.0802C7.25184 13.5937 7.48124 13.8284 7.9307 14.0138C10.8155 15.1901 13.715 15.2541 16.6385 14.1818C17.6935 13.7937 17.6895 13.7817 17.6882 12.6867C17.6882 12.376 17.6882 12.0652 17.6802 11.7531C17.6465 10.8111 17.2604 9.91606 16.5981 9.24521C15.9359 8.57436 15.046 8.17663 14.1045 8.13077C13.571 8.1081 13.0375 8.1281 12.504 8.1281ZM15.5542 4.08027C15.5494 3.27096 15.2234 2.49668 14.6477 1.92778C14.0721 1.35889 13.294 1.04196 12.4847 1.04674C11.6753 1.05151 10.9011 1.3776 10.3322 1.95325C9.76328 2.5289 9.44636 3.30697 9.45113 4.11629C9.4618 5.76076 10.8862 7.17449 12.5213 7.16116C14.1565 7.14782 15.5716 5.72475 15.5542 4.08027ZM5.2766 6.25156C5.84942 6.24383 6.39579 6.0092 6.79584 5.59915C7.19589 5.1891 7.41696 4.63711 7.41055 4.06427C7.39054 2.89327 6.37692 1.89832 5.21659 1.91966C4.05625 1.941 3.0493 2.97462 3.0693 4.12429C3.0867 4.69684 3.32734 5.23989 3.73979 5.63739C4.15224 6.03488 4.7038 6.25531 5.2766 6.25156ZM19.7541 6.25156C20.3266 6.24785 20.875 6.02078 21.2826 5.61871C21.6901 5.21664 21.9246 4.67134 21.936 4.09895C21.9216 3.52662 21.6886 2.98155 21.2847 2.57574C20.8809 2.16993 20.337 1.9342 19.7648 1.91699C19.1913 1.92763 18.6444 2.16053 18.2393 2.56659C17.8343 2.97265 17.6027 3.52014 17.5935 4.09361C17.5949 4.66609 17.823 5.21469 18.2279 5.61937C18.6329 6.02405 19.1816 6.25184 19.7541 6.2529V6.25156ZM9.96995 7.20384C9.12479 6.46792 8.58493 5.44291 8.45618 4.32968C8.30947 4.76847 8.25346 5.03388 8.13609 5.26328C7.9427 5.64872 7.46923 6.09018 7.55726 6.37026C7.65462 6.68769 8.30014 6.79572 8.60022 7.09981C9.01901 7.52793 9.40312 7.58928 9.96995 7.20384ZM14.974 7.27719C15.4529 7.33721 15.7423 7.71198 16.101 7.35188C16.4425 7.00253 16.8507 6.7254 17.3014 6.53698C17.5001 6.45562 17.6201 6.36093 17.4227 6.15954C16.968 5.69674 16.7852 5.09257 16.5345 4.33101C16.3878 5.58337 15.8476 6.45562 14.9727 7.27719H14.974Z" fill="#FA8B02"/>
</svg>
