<svg width="24" height="18" viewBox="0 0 24 18" fill="none" xmlns="http://www.w3.org/2000/svg">
<path d="M0.56826 11.9053L0.568279 11.9054C0.892129 11.8699 1.1908 11.7139 1.40512 11.4686C1.61943 11.2232 1.73376 10.9062 1.72543 10.5805L1.7252 10.5716L1.72536 10.5716C1.72857 10.2533 1.61419 9.94496 1.40414 9.70573C1.19409 9.4665 0.903153 9.31319 0.587072 9.27518L0.58231 9.2746L0.582317 9.27456C0.321483 9.2381 0.0969651 9.15378 -0.0504256 8.96659C-0.194014 8.78424 -0.224232 8.55361 -0.221831 8.32562C-0.209476 7.07217 -0.202767 5.81996 -0.225174 4.56965C-0.230275 4.29576 -0.173511 4.05456 -0.00205913 3.87507C0.16371 3.70153 0.396745 3.629 0.639991 3.59312L0.640189 3.59309C6.76801 2.69426 12.8947 1.78643 19.0203 0.869617L0.56826 11.9053ZM0.56826 11.9053L0.559092 11.9066M0.56826 11.9053L0.559092 11.9066M0.559092 11.9066C0.308399 11.9436 0.0852353 12.025 -0.0653495 12.2071M0.559092 11.9066L-0.0653495 12.2071M21.445 0.48574L21.4456 0.485637C21.6992 0.438658 21.968 0.426793 22.1844 0.564018C22.4129 0.708945 22.505 0.966922 22.5342 1.26176C22.5673 1.59435 22.619 1.92614 22.672 2.26597L22.6738 2.27723C22.727 2.6185 22.7812 2.96792 22.8152 3.32063C22.8334 3.50723 22.8678 3.56751 22.8902 3.58994C22.9055 3.60535 22.9552 3.64229 23.1425 3.63881C23.3457 3.63493 23.5202 3.63442 23.6599 3.65262C23.8003 3.67091 23.9482 3.71276 24.061 3.829C24.1722 3.94366 24.2112 4.09175 24.2291 4.22974C24.2471 4.36829 24.2487 4.54184 24.2489 4.74235V4.74269C24.2489 5.13716 24.2481 5.53102 24.2472 5.92456C24.2454 6.71038 24.2437 7.4949 24.2489 8.28035L24.2489 8.28202C24.2489 8.49922 24.2314 8.74008 24.0994 8.93356C23.9565 9.14313 23.7226 9.24074 23.4293 9.27525L23.4273 9.27549C23.111 9.31011 22.8186 9.46059 22.6067 9.69793C22.3947 9.93526 22.2781 10.2427 22.2793 10.5609L22.2793 10.5694L22.2792 10.5694C22.2693 10.8952 22.3817 11.2128 22.5942 11.4599C22.8068 11.707 23.1041 11.8657 23.4277 11.9046L23.4354 11.9055L23.4354 11.9057C23.7012 11.9461 23.9218 12.0401 24.0616 12.2362C24.1945 12.4225 24.2182 12.6534 24.2152 12.8752V12.8753C24.1984 14.1101 24.1917 15.343 24.2152 16.575L24.2152 16.5751C24.2206 16.8645 24.1732 17.1346 23.9805 17.321C23.7909 17.5044 23.5204 17.5478 23.2383 17.5466H23.2383C20.3167 17.5335 17.3912 17.5347 14.4647 17.5358C13.6282 17.5362 12.7917 17.5365 11.9551 17.5365H0.831527C0.641282 17.5365 0.475321 17.5333 0.340386 17.5125C0.204055 17.4914 0.0628909 17.4473 -0.04659 17.3361C-0.155544 17.2255 -0.198259 17.0837 -0.218703 16.9472C-0.239024 16.8114 -0.242068 16.6441 -0.242068 16.4517C-0.242068 16.1176 -0.241199 15.784 -0.240331 15.4507C-0.238079 14.5861 -0.235832 13.7236 -0.24878 12.86L21.445 0.48574ZM21.445 0.48574C20.8018 0.606337 20.1551 0.701764 19.5054 0.797632M21.445 0.48574L19.5054 0.797632M17.345 5.3955C17.3461 5.65842 17.4046 5.91573 17.7225 5.9C18.0405 5.88427 18.0686 5.62809 18.0776 5.36517M17.345 5.3955L22.8003 4.84098C21.8575 4.85473 20.9137 4.85222 19.9716 4.84971C19.6022 4.84873 19.2329 4.84775 18.8641 4.84775C18.6698 4.84775 18.545 4.84813 18.4555 4.85818C18.4067 4.86366 18.3833 4.87076 18.3739 4.87442C18.3698 4.88382 18.3614 4.90772 18.3537 4.95871C18.34 5.04942 18.3347 5.17686 18.3274 5.37418C18.3274 5.37422 18.3274 5.37427 18.3274 5.37431L18.0776 5.36517M17.345 5.3955C17.345 5.35805 17.3438 5.3206 17.3425 5.28314M17.345 5.3955L17.3425 5.28314M18.0776 5.36517C18.1057 4.59775 18.1113 4.59775 18.8641 4.59775C19.2344 4.59775 19.6045 4.59873 19.9745 4.59972C20.9158 4.60222 21.8562 4.60472 22.7967 4.59101L18.0776 5.36517ZM18.4913 16.3275L18.4915 16.3275C19.9354 16.3107 21.3788 16.314 22.8215 16.3275C22.8926 16.3274 22.9413 16.3225 22.9747 16.315C22.9909 16.3113 23.001 16.3076 23.007 16.3048C23.0099 16.3035 23.0118 16.3024 23.0128 16.3018L23.0142 16.3008L23.0142 16.3008L23.0142 16.3008L23.0143 16.3008L23.0143 16.3007L23.0144 16.3006L23.015 16.2997C23.016 16.298 23.019 16.2929 23.0224 16.2819C23.0297 16.2584 23.0369 16.2154 23.0355 16.1418C23.0175 15.1849 23.0208 14.2264 23.0355 13.2712C23.0352 13.1514 23.0147 13.1124 23.0022 13.0957C22.9875 13.0759 22.9497 13.0416 22.8252 12.9973L22.8246 12.9971C22.2789 12.8012 21.8484 12.4923 21.554 12.0779C21.2596 11.6636 21.1128 11.1602 21.1074 10.5945L21.1074 10.5944C21.0974 9.49973 21.7383 8.58327 22.8284 8.18447C22.9585 8.1362 23.0042 8.09462 23.0242 8.06598C23.0434 8.03869 23.0643 7.9874 23.0625 7.86102C23.0478 6.94168 23.0422 6.02138 23.0625 5.1001L23.0625 5.09915C23.0672 4.91834 23.0332 4.8809 23.0294 4.87712C23.0242 4.87194 22.9836 4.83836 22.8003 4.84098L18.4913 16.3275ZM18.4913 16.3275C18.3765 16.329 18.3388 16.3114 18.3306 16.3061L18.4913 16.3275ZM17.6753 15.2955C18.1202 15.2881 18.0923 15.6324 18.0679 15.9337C18.0627 15.9984 18.0576 16.0611 18.0574 16.118C18.0562 16.4393 18.1371 16.582 18.4944 16.5775L17.3252 15.9397C17.2958 15.6493 17.2606 15.3012 17.6753 15.2955ZM17.6753 15.2955L17.6719 15.0455C17.6718 15.0455 17.6717 15.0455 17.6716 15.0455C17.6714 15.0455 17.6713 15.0455 17.6712 15.0455L17.6753 15.2955ZM1.00845 5.0536L1.00845 5.05371C1.02648 6.01042 1.02423 6.96887 1.0085 7.92441C1.00874 8.04137 1.03113 8.07986 1.0445 8.0967C1.06241 8.11928 1.10419 8.15298 1.22661 8.19706C2.31954 8.58267 2.95432 9.49413 2.95681 10.6051C2.9593 11.7212 2.33005 12.598 1.21869 12.9992C1.09295 13.0446 1.05664 13.0791 1.04319 13.0977C1.0318 13.1134 1.0117 13.1522 1.01407 13.2749L1.01408 13.2757C1.0156 13.3695 1.01722 13.4635 1.01883 13.5575C1.03265 14.3613 1.04663 15.1749 1.00594 15.9888L1.00845 5.0536ZM1.00845 5.0536C1.00602 4.92754 1.02594 4.89085 1.03006 4.88486C1.03426 4.88193 1.07118 4.85902 1.2166 4.85899M1.00845 5.0536L1.2166 4.85899M16.9278 3.66236C17.3303 3.66231 17.7336 3.66133 18.1372 3.66035C19.2406 3.65768 20.3469 3.65499 21.4475 3.67137C21.5414 3.67261 21.5993 3.66489 21.6334 3.65531C21.642 3.65288 21.648 3.65065 21.652 3.64892C21.653 3.64417 21.6542 3.63686 21.6548 3.62625C21.6572 3.58997 21.653 3.53322 21.6358 3.44678C21.6358 3.44669 21.6358 3.44659 21.6358 3.4465L16.9278 3.66236ZM16.9278 3.66236C17.0056 3.61301 17.0682 3.54548 17.1128 3.461C17.1877 3.31897 17.1954 3.15801 17.1891 3.02844C17.1891 3.0284 17.1891 3.02836 17.1891 3.02832L16.9278 3.66236ZM-0.0653495 12.2071C-0.214777 12.3878 -0.252487 12.6194 -0.248782 12.8599L-0.0653495 12.2071ZM19.5054 0.797632C19.3439 0.821465 19.1822 0.845325 19.0204 0.869605L19.5054 0.797632ZM1.2166 4.85899C6.43928 4.86573 11.6623 4.86573 16.8858 4.85899H1.2166ZM17.3425 5.28314C17.34 5.20824 17.3375 5.13333 17.345 5.05842L17.3425 5.28314ZM17.0885 16.1077C17.0917 16.1975 17.0821 16.2469 17.0733 16.2719C17.0663 16.2915 17.0612 16.2934 17.0605 16.2939C17.0551 16.2976 17.0366 16.3079 16.9884 16.3156C16.9399 16.3234 16.8771 16.3264 16.7922 16.3264H16.7771H16.7619H16.7468H16.7316H16.7165H16.7013H16.6862H16.6711H16.6559H16.6408H16.6256H16.6105H16.5954H16.5802H16.5651H16.5499H16.5348H16.5196H16.5045H16.4894H16.4742H16.4591H16.4439H16.4288H16.4136H16.3985H16.3834H16.3682H16.3531H16.3379H16.3228H16.3076H16.2925H16.2774H16.2622H16.2471H16.2319H16.2168H16.2017H16.1865H16.1714H16.1562H16.1411H16.1259H16.1108H16.0957H16.0805H16.0654H16.0502H16.0351H16.0199H16.0048H15.9897H15.9745H15.9594H15.9442H15.9291H15.914H15.8988H15.8837H15.8685H15.8534H15.8382H15.8231H15.808H15.7928H15.7777H15.7625H15.7474H15.7322H15.7171H15.702H15.6868H15.6717H15.6565H15.6414H15.6263H15.6111H15.596H15.5808H15.5657H15.5505H15.5354H15.5203H15.5051H15.49H15.4748H15.4597H15.4445H15.4294H15.4143H15.3991H15.384H15.3688H15.3537H15.3385H15.3234H15.3083H15.2931H15.278H15.2628H15.2477H15.2326H15.2174H15.2023H15.1871H15.172H15.1568H15.1417H15.1266H15.1114H15.0963H15.0811H15.066H15.0508H15.0357H15.0206H15.0054H14.9903H14.9751H14.96H14.9449H14.9297H14.9146H14.8994H14.8843H14.8691H14.854H14.8389H14.8237H14.8086H14.7934H14.7783H14.7631H14.748H14.7329H14.7177H14.7026H14.6874H14.6723H14.6571H14.642H14.6269H14.6117H14.5966H14.5814H14.5663H14.5512H14.536H14.5209H14.5057H14.4906H14.4754H14.4603H14.4452H14.43H14.4149H14.3997H14.3846H14.3694H14.3543H14.3392H14.324H14.3089H14.2937H14.2786H14.2635H14.2483H14.2332H14.218H14.2029H14.1877H14.1726H14.1575H14.1423H14.1272H14.112H14.0969H14.0817H14.0666H14.0515H14.0363H14.0212H14.006H13.9909H13.9757H13.9606H13.9455H13.9303H13.9152H13.9H13.8849H13.8698H13.8546H13.8395H13.8243H13.8092H13.794H13.7789H13.7638H13.7486H13.7335H13.7183H13.7032H13.688H13.6729H13.6578H13.6426H13.6275H13.6123H13.5972H13.5821H13.5669H13.5518H13.5366H13.5215H13.5063H13.4912H13.4761H13.4609H13.4458H13.4306H13.4155H13.4003H13.3852H13.3701H13.3549H13.3398H13.3246H13.3095H13.2944H13.2792H13.2641H13.2489H13.2338H13.2186H13.2035H13.1884H13.1732H13.1581H13.1429H13.1278H13.1126H13.0975H13.0824H13.0672H13.0521H13.0369H13.0218H13.0066H12.9915H12.9764H12.9612H12.9461H12.9309H12.9158H12.9007H12.8855H12.8704H12.8552H12.8401H12.8249H12.8098H12.7947H12.7795H12.7644H12.7492H12.7341H12.7189H12.7038H12.6887H12.6735H12.6584H12.6432H12.6281H12.613H12.5978H12.5827H12.5675H12.5524H12.5372H12.5221H12.507H12.4918H12.4767H12.4615H12.4464H12.4312H12.4161H12.401H12.3858H12.3707H12.3555H12.3404H12.3253H12.3101H12.295H12.2798H12.2647H12.2495H12.2344H12.2193H12.2041H12.189H12.1738H12.1587H12.1435H12.1284H12.1133H12.0981H12.083H12.0678H12.0527H12.0375H12.0224H12.0073H11.9921H11.977H11.9618H11.9467H11.9316H11.9164H11.9013H11.8861H11.871H11.8558H11.8407H11.8256H11.8104H11.7953H11.7801H11.765H11.7498H11.7347H11.7196H11.7044H11.6893H11.6741H11.659H11.6439H11.6287H11.6136H11.5984H11.5833H11.5681H11.553H11.5379H11.5227H11.5076H11.4924H11.4773H11.4621H11.447H11.4319H11.4167H11.4016H11.3864H11.3713H11.3561H11.341H11.3259H11.3107H11.2956H11.2804H11.2653H11.2502H11.235H11.2199H11.2047H11.1896H11.1744H11.1593H11.1442H11.129H11.1139H11.0987H11.0836H11.0684H11.0533H11.0382H11.023H11.0079H10.9927H10.9776H10.9625H10.9473H10.9322H10.917H10.9019H10.8867H10.8716H10.8565H10.8413H10.8262H10.811H10.7959H10.7807H10.7656H10.7505H10.7353H10.7202H10.705H10.6899H10.6748H10.6596H10.6445H10.6293H10.6142H10.599H10.5839H10.5688H10.5536H10.5385H10.5233H10.5082H10.493H10.4779H10.4628H10.4476H10.4325H10.4173H10.4022H10.387H10.3719H10.3568H10.3416H10.3265H10.3113H10.2962H10.2811H10.2659H10.2508H10.2356H10.2205H10.2053H10.1902H10.1751H10.1599H10.1448H10.1296H10.1145H10.0993H10.0842H10.0691H10.0539H10.0388H10.0236H10.0085H9.99335H9.97821H9.96307H9.94792H9.93278H9.91764H9.9025H9.88736H9.87221H9.85707H9.84193H9.82679H9.81164H9.7965H9.78136H9.76622H9.75108H9.73593H9.72079H9.70565H9.69051H9.67537H9.66022H9.64508H9.62994H9.6148H9.59965H9.58451H9.56937H9.55423H9.53909H9.52394H9.5088H9.49366H9.47852H9.46337H9.44823H9.43309H9.41795H9.40281H9.38766H9.37252H9.35738H9.34224H9.32709H9.31195H9.29681H9.28167H9.26653H9.25138H9.23624H9.2211H9.20596H9.19081H9.17567H9.16053H9.14539H9.13025H9.1151H9.09996H9.08482H9.06968H9.05453H9.03939C8.43695 16.3264 7.83432 16.3258 7.23153 16.3253C5.28807 16.3234 3.34289 16.3216 1.39674 16.3388C1.15631 16.3405 1.0793 16.3108 1.0524 16.2882C1.04262 16.28 0.99383 16.234 1.00593 15.9889L17.0885 16.1077ZM18.3287 16.3047C18.3288 16.3047 18.3292 16.305 18.33 16.3057C18.329 16.3051 18.3286 16.3047 18.3287 16.3047ZM8.54664 3.66236C8.76361 3.63008 8.98064 3.5977 9.19773 3.56522C9.72057 3.48713 10.2437 3.40947 10.767 3.33179C12.3882 3.09114 14.0111 2.85026 15.631 2.59529C15.7239 2.58069 15.7918 2.57672 15.8408 2.58029C15.8893 2.58382 15.905 2.59373 15.9066 2.59485C15.9068 2.595 15.9071 2.59514 15.9073 2.59535C15.9077 2.59567 15.9081 2.59615 15.9088 2.59712C15.9102 2.59909 15.9142 2.60527 15.9188 2.61884C15.9286 2.64819 15.9378 2.7025 15.9345 2.79552L15.9341 2.80538L15.9346 2.81523C15.9401 2.94476 15.9603 3.07324 15.9945 3.19825C16.0199 3.32976 16.0711 3.48091 16.1824 3.59583C16.2067 3.62088 16.2327 3.64306 16.2602 3.66236H8.54664ZM21.3666 1.77324C21.372 1.77981 21.3943 1.81388 21.4078 1.92913L21.1405 1.53146L21.1814 1.7781C21.1814 1.77809 21.1815 1.77808 21.1816 1.77806C21.3174 1.7556 21.3599 1.77041 21.3666 1.77324ZM21.6588 3.64535C21.6588 3.64537 21.6586 3.64557 21.658 3.64592L21.6588 3.64535Z" fill="#FA8B02" stroke="#FA8B02" stroke-width="0.5"/>
<path d="M13.9433 11.7123L13.9434 11.7146C13.9433 11.8502 13.9153 11.9771 13.8451 12.0838C13.7733 12.1928 13.6736 12.2563 13.5754 12.2922C13.4813 12.3266 13.384 12.3375 13.3029 12.3417C13.2431 12.3448 13.1786 12.3446 13.1243 12.3444C13.1067 12.3443 13.0902 12.3443 13.0752 12.3443L13.0747 12.3444C12.1547 12.3458 11.2325 12.3453 10.31 12.3448C9.84867 12.3446 9.38722 12.3444 8.92593 12.3444H8.91803H8.91013H8.90223H8.89433H8.88643H8.87853H8.87063H8.86273H8.85483H8.84693H8.83903H8.83113H8.82323H8.81533H8.80743H8.79953H8.79163H8.78373H8.77583H8.76792H8.76002H8.75212H8.74422H8.73632H8.72842H8.72052H8.71262H8.70472H8.69682H8.68892H8.68102H8.67312H8.66522H8.65732H8.64942H8.64152H8.63362H8.62572H8.61782H8.60992H8.60202H8.59412H8.58622H8.57832H8.57042H8.56252H8.55462H8.54672H8.53882H8.53092H8.52302H8.51512H8.50722H8.49932H8.49142H8.48351H8.47561H8.46771H8.45981H8.45191H8.44401H8.43611H8.42821H8.42031H8.41241H8.40451H8.39661H8.38871H8.38081H8.37291H8.36501H8.35711H8.34921H8.34131H8.33341H8.32551H8.31761H8.30971H8.30181H8.29391H8.28601H8.27811H8.27021H8.26231H8.25441H8.24651H8.23861H8.23071H8.22281H8.21491H8.207H8.1991H8.1912H8.1833H8.1754H8.1675H8.1596H8.1517H8.1438H8.1359H8.128H8.1201H8.1122H8.1043H8.0964H8.0885H8.0806H8.0727H8.0648H8.0569H8.049H8.0411H8.0332H8.0253H8.0174H8.0095H8.0016H7.9937H7.9858H7.9779H7.97H7.9621H7.9542H7.9463H7.9384H7.9305H7.92259H7.91469H7.90679H7.89889H7.89099H7.88309H7.87519H7.86729H7.85939H7.85149H7.84359H7.83569H7.82779H7.81989H7.81199H7.80409H7.79619H7.78829H7.78039H7.77249H7.76459H7.75669H7.74879H7.74089H7.73299H7.72509H7.71719H7.70929H7.70139H7.69349H7.68559H7.67769H7.66979H7.66189H7.65399H7.64608H7.63818H7.63028H7.62238H7.61448H7.60658H7.59868H7.59078H7.58288H7.57498H7.56708H7.55918H7.55128H7.54338H7.53548H7.52758H7.51968H7.51178H7.50388H7.49598H7.48808H7.48018H7.47228H7.46438H7.45648H7.44858H7.44068H7.43278H7.42488H7.41698H7.40908H7.40118H7.39328H7.38538H7.37748H7.36958H7.36167H7.35377H7.34587H7.33797H7.33007H7.32217H7.31427H7.30637H7.29847H7.29057H7.28267H7.27477H7.26687H7.25897H7.25107H7.24317H7.23527H7.22737H7.21947H7.21157H7.20367H7.19577H7.18787H7.17997H7.17207H7.16417H7.15627H7.14837H7.14047H7.13257H7.12467H7.11677H7.10887H7.10097H7.09307H7.08516H7.07726H7.06936H7.06146H7.05356H7.04566H7.03776H7.02986H7.02196H7.01406H7.00616H6.99826H6.99036H6.98246H6.97456H6.96666H6.95876H6.95086H6.94296H6.93506H6.92716H6.91926H6.91136H6.90346H6.89556H6.88766H6.87976H6.87186H6.86396H6.85606H6.84816H6.84026H6.83236H6.82446H6.81656H6.80866H6.80075H6.79285H6.78495H6.77705H6.76915H6.76125H6.75335H6.74545H6.73755H6.72965H6.72175H6.71385H6.70595H6.69805H6.69015H6.68225H6.67435H6.66645H6.65855H6.65065H6.64275H6.63485H6.62695H6.61905H6.61115H6.60325H6.59535H6.58745H6.57955H6.57165H6.56375H6.55585H6.54795H6.54005H6.53215H6.52425H6.51634H6.50844H6.50054H6.49264H6.48474H6.47684H6.46894H6.46104H6.45314H6.44524H6.43734H6.42944H6.42154H6.41364H6.40574H6.39784H6.38994H6.38204H6.37414H6.36624H6.35834H6.35044H6.34254H6.33464H6.32674H6.31884H6.31094H6.30304H6.29514H6.28724H6.27934H6.27144H6.26354H6.25564H6.24774H6.23983H6.23193H6.22403H6.21613H6.20823H6.20033H6.19243H6.18453H6.17663H6.16873H6.16083H6.15293H6.14503H6.13713H6.12923H6.12133H6.11343H6.10553H6.09763H6.08973H6.08183H6.07393H6.06603H6.05813H6.05023H6.04233H6.03443H6.02653H6.01863H6.01073H6.00283H5.99493H5.98703H5.97913H5.97123H5.96332H5.95542H5.94752H5.93962H5.93172H5.92382H5.91592H5.90802H5.90012H5.89222H5.88432H5.87642H5.86852H5.86062H5.85272H5.84482H5.83692H5.82902H5.82112H5.81322H5.80532H5.79742H5.78952H5.78162H5.77372H5.76582H5.75792H5.75002H5.74212H5.73422H5.72632H5.71842H5.71052H5.70262H5.69472H5.68682H5.67891H5.67101H5.66311H5.65521H5.64731H5.63941H5.63151H5.62361H5.61571H5.60781H5.59991H5.59201H5.58411H5.57621H5.56831H5.56041H5.55251H5.54461H5.53671H5.52881H5.52091H5.51301H5.50511H5.49721H5.48931H5.48141H5.47351H5.46561H5.45771H5.44981H5.44191H5.43401H5.42611H5.41821H5.41031H5.40241H5.3945H5.3866H5.3787H5.3708H5.3629H5.355H5.3471H5.3392H5.3313H5.3234H5.3155H5.3076H5.2997H5.2918H5.2839H5.276H5.2681H5.2602H5.2523H5.2444H5.2365H5.2286H5.2207H5.2128H5.2049H5.197H5.1891H5.1812H5.1733H5.1654H5.1575H5.1496H5.1417H5.1338H5.1259H5.11799H5.11009H5.10219H5.09429H5.08639H5.07849H5.07059H5.06269H5.05479H5.04689H5.03899H5.03109H5.02319H5.01529H5.00739H4.99949H4.99159H4.98369H4.97579H4.96789H4.95999H4.95209H4.94419H4.93629H4.92839H4.92049H4.91259H4.90469H4.89679H4.88889H4.88099C4.86971 12.3444 4.85774 12.3444 4.84522 12.3444C4.78725 12.3447 4.7175 12.3449 4.65071 12.3408C4.5688 12.3358 4.47116 12.3235 4.37719 12.2875C4.27918 12.2499 4.18018 12.1844 4.11029 12.0738C4.04178 11.9654 4.01647 11.8376 4.01983 11.7017L13.9433 11.7123ZM13.9433 11.7123C13.9422 11.5849 13.9136 11.4653 13.8453 11.3642C13.7762 11.2619 13.6817 11.2011 13.5891 11.1657C13.4378 11.1079 13.257 11.1088 13.141 11.1094C13.1302 11.1095 13.1199 11.1095 13.1102 11.1095H13.0941H13.078H13.0619H13.0458H13.0296H13.0135H12.9974H12.9813H12.9652H12.9491H12.933H12.9169H12.9007H12.8846H12.8685H12.8524H12.8363H12.8202H12.8041H12.788H12.7718H12.7557H12.7396H12.7235H12.7074H12.6913H12.6752H12.6591H12.6429H12.6268H12.6107H12.5946H12.5785H12.5624H12.5463H12.5302H12.514H12.4979H12.4818H12.4657H12.4496H12.4335H12.4174H12.4013H12.3852H12.369H12.3529H12.3368H12.3207H12.3046H12.2885H12.2724H12.2563H12.2401H12.224H12.2079H12.1918H12.1757H12.1596H12.1435H12.1274H12.1112H12.0951H12.079H12.0629H12.0468H12.0307H12.0146H11.9985H11.9823H11.9662H11.9501H11.934H11.9179H11.9018H11.8857H11.8696H11.8535H11.8373H11.8212H11.8051H11.789H11.7729H11.7568H11.7407H11.7246H11.7084H11.6923H11.6762H11.6601H11.644H11.6279H11.6118H11.5957H11.5795H11.5634H11.5473H11.5312H11.5151H11.499H11.4829H11.4668H11.4506H11.4345H11.4184H11.4023H11.3862H11.3701H11.354H11.3379H11.3217H11.3056H11.2895H11.2734H11.2573H11.2412H11.2251H11.209H11.1929H11.1767H11.1606H11.1445H11.1284H11.1123H11.0962H11.0801H11.064H11.0478H11.0317H11.0156H10.9995H10.9834H10.9673H10.9512H10.9351H10.9189H10.9028H10.8867H10.8706H10.8545H10.8384H10.8223H10.8062H10.79H10.7739H10.7578H10.7417H10.7256H10.7095H10.6934H10.6773H10.6611H10.645H10.6289H10.6128H10.5967H10.5806H10.5645H10.5484H10.5323H10.5161H10.5H10.4839H10.4678H10.4517H10.4356H10.4195H10.4034H10.3872H10.3711H10.355H10.3389H10.3228H10.3067H10.2906H10.2745H10.2583H10.2422H10.2261H10.21H10.1939H10.1778H10.1617H10.1456H10.1294H10.1133H10.0972H10.0811H10.065H10.0489H10.0328H10.0167H10.0005H9.98444H9.96832H9.95221H9.9361H9.91999H9.90388H9.88776H9.87165H9.85554H9.83943H9.82332H9.8072H9.79109H9.77498H9.75887H9.74275H9.72664H9.71053H9.69442H9.67831H9.66219H9.64608H9.62997H9.61386H9.59774H9.58163H9.56552H9.54941H9.5333H9.51718H9.50107H9.48496H9.46885H9.45273H9.43662H9.42051H9.4044H9.38829H9.37217H9.35606H9.33995H9.32384H9.30772H9.29161H9.2755H9.25939H9.24328H9.22716H9.21105H9.19494H9.17883H9.16272H9.1466H9.13049H9.11438H9.09827H9.08215H9.06604H9.04993H9.03382H9.01771H9.00159H8.98548H8.96937H8.95326H8.93714H8.92103H8.90492H8.88881H8.8727H8.85658H8.84047H8.82436H8.80825H8.79214H8.77602H8.75991H8.7438H8.72769H8.71157H8.69546H8.67935H8.66324H8.64713H8.63101H8.6149H8.59879H8.58268H8.56656H8.55045H8.53434H8.51823H8.50212H8.486H8.46989H8.45378H8.43767H8.42156H8.40544H8.38933H8.37322H8.35711H8.34099H8.32488H8.30877H8.29266H8.27655H8.26043H8.24432H8.22821H8.2121H8.19598H8.17987H8.16376H8.14765H8.13154H8.11542H8.09931H8.0832H8.06709H8.05097H8.03486H8.01875H8.00264H7.98653H7.97041H7.9543H7.93819H7.92208H7.90597H7.88985H7.87374H7.85763H7.84152H7.8254H7.80929H7.79318H7.77707H7.76096H7.74484H7.72873H7.71262H7.69651H7.68039H7.66428H7.64817H7.63206H7.61595H7.59983H7.58372H7.56761H7.5515H7.53538H7.51927H7.50316H7.48705H7.47094H7.45482H7.43871H7.4226H7.40649H7.39038H7.37426H7.35815H7.34204H7.32593H7.30981H7.2937H7.27759H7.26148H7.24537H7.22925H7.21314H7.19703H7.18092H7.1648H7.14869H7.13258H7.11647H7.10036H7.08424H7.06813H7.05202H7.03591H7.01979H7.00368H6.98757H6.97146H6.95535H6.93923H6.92312H6.90701H6.8909H6.87479H6.85867H6.84256H6.82645H6.81034H6.79422H6.77811H6.762H6.74589H6.72978H6.71366H6.69755H6.68144H6.66533H6.64921H6.6331H6.61699H6.60088H6.58477H6.56865H6.55254H6.53643H6.52032H6.5042H6.48809H6.47198H6.45587H6.43976H6.42364H6.40753H6.39142H6.37531H6.3592H6.34308H6.32697H6.31086H6.29475H6.27863H6.26252H6.24641H6.2303H6.21419H6.19807H6.18196H6.16585H6.14974H6.13362H6.11751H6.1014H6.08529H6.06918H6.05306H6.03695H6.02084H6.00473H5.98862H5.9725H5.95639H5.94028H5.92417H5.90805H5.89194H5.87583H5.85972H5.84361H5.82749H5.81138H5.79527H5.77916H5.76304H5.74693H5.73082H5.71471H5.6986H5.68248H5.66637H5.65026H5.63415H5.61803H5.60192H5.58581H5.5697H5.55359H5.53747H5.52136H5.50525H5.48914H5.47303H5.45691H5.4408H5.42469H5.40858H5.39246H5.37635H5.36024H5.34413H5.32802H5.3119H5.29579H5.27968H5.26357H5.24745H5.23134H5.21523H5.19912H5.18301H5.16689H5.15078H5.13467H5.11856H5.10244H5.08633H5.07022H5.05411H5.038H5.02188H5.00577H4.98966H4.97355H4.95744H4.94132H4.92521H4.9091H4.89299H4.87687H4.86076C4.84964 11.1095 4.8376 11.1094 4.82475 11.1093M13.9433 11.7123L4.82475 11.1093M4.82475 11.1093C4.71044 11.1085 4.53298 11.1073 4.38422 11.1614M4.82475 11.1093L4.38422 11.1614M4.38422 11.1614C4.29156 11.195 4.19582 11.2538 4.12457 11.3546M4.38422 11.1614L4.12457 11.3546M4.12457 11.3546C4.05392 11.4546 4.02297 11.5739 4.01983 11.7016L4.12457 11.3546Z" fill="#FA8B02" stroke="#FA8B02" stroke-width="0.5"/>
<path d="M4.74488 14.5824L4.74488 14.5826H4.75298H4.75331H4.75364H4.75396H4.75429H4.75462H4.75495H4.75528H4.75561H4.75594H4.75627H4.7566H4.75693H4.75726H4.75759H4.75791H4.75824H4.75857H4.7589H4.75923H4.75956H4.75989H4.76022H4.76055H4.76088H4.76121H4.76154H4.76186H4.76219H4.76252H4.76285H4.76318H4.76351H4.76384H4.76417H4.7645H4.76483H4.76516H4.76549H4.76582H4.76614H4.76647H4.7668H4.76713H4.76746H4.76779H4.76812H4.76845H4.76878H4.76911H4.76944H4.76977H4.77009H4.77042H4.77075H4.77108H4.77141H4.77174H4.77207H4.7724H4.77273H4.77306H4.77339H4.77372H4.77404H4.77437H4.7747H4.77503H4.77536H4.77569H4.77602H4.77635H4.77668H4.77701H4.77734H4.77767H4.77799H4.77832H4.77865H4.77898H4.77931H4.77964H4.77997H4.7803H4.78063H4.78096H4.78129H4.78162H4.78194H4.78227H4.7826H4.78293H4.78326H4.78359H4.78392H4.78425H4.78458H4.78491H4.78524H4.78557H4.78589H4.78622H4.78655H4.78688H4.78721H4.78754H4.78787H4.7882H4.78853H4.78886H4.78919H4.78952H4.78985H4.79017H4.7905H4.79083H4.79116H4.79149H4.79182H4.79215H4.79248H4.79281H4.79314H4.79347H4.7938H4.79412H4.79445H4.79478H4.79511H4.79544H4.79577H4.7961H4.79643H4.79676H4.79709H4.79742H4.79775H4.79807H4.7984H4.79873H4.79906H4.79939H4.79972H4.80005H4.80038H4.80071H4.80104H4.80137H4.8017H4.80202H4.80235H4.80268H4.80301H4.80334H4.80367H4.804H4.80433H4.80466H4.80499H4.80532H4.80565H4.80597H4.8063H4.80663H4.80696H4.80729H4.80762H4.80795H4.80828H4.80861H4.80894H4.80927H4.8096H4.80993H4.81025H4.81058H4.81091H4.81124H4.81157H4.8119H4.81223H4.81256H4.81289H4.81322H4.81355H4.81388H4.8142H4.81453H4.81486H4.81519H4.81552H4.81585H4.81618H4.81651H4.81684H4.81717H4.8175H4.81783H4.81815H4.81848H4.81881H4.81914H4.81947H4.8198H4.82013H4.82046H4.82079H4.82112H4.82145H4.82178H4.8221H4.82243H4.82276H4.82309H4.82342H4.82375H4.82408H4.82441H4.82474H4.82507H4.8254H4.82573H4.82605H4.82638H4.82671H4.82704H4.82737H4.8277H4.82803H4.82836H4.82869H4.82902H4.82935H4.82968H4.83H4.83033H4.83066H4.83099H4.83132H4.83165H4.83198H4.83231H4.83264H4.83297H4.8333H4.83363H4.83396H4.83428H4.83461H4.83494H4.83527H4.8356H4.83593H4.83626H4.83659H4.83692H4.83725H4.83758H4.83791H4.83823H4.83856H4.83889H4.83922H4.83955H4.83988H4.84021H4.84054H4.84087H4.8412H4.84153H4.84186H4.84218H4.84251H4.84284H4.84317H4.8435H4.84383H4.84416H4.84449H4.84482H4.84515H4.84548H4.84581H4.84613H4.84646H4.84679H4.84712H4.84745H4.84778H4.84811H4.84844H4.84877H4.8491H4.84943H4.84976H4.85008H4.85041H4.85074H4.85107H4.8514H4.85173H4.85206H4.85239H4.85272H4.85305H4.85338H4.85371H4.85403H4.85436H4.85469H4.85502H4.85535H4.85568H4.85601H4.85634H4.85667H4.857H4.85733H4.85766H4.85799H4.85831H4.85864H4.85897H4.8593H4.85963H4.85996H4.86029H4.86062H4.86095H4.86128H4.86161H4.86194H4.86226H4.86259H4.86292H4.86325H4.86358H4.86391H4.86424H4.86457H4.8649H4.86523H4.86556H4.86589H4.86621H4.86654H4.86687H4.8672H4.86753H4.86786H4.86819H4.86852H4.86885H4.86918H4.86951H4.86984H4.87016H4.87049H4.87082H4.87115H4.87148H4.87181H4.87214H4.87247H4.8728H4.87313H4.87346H4.87379H4.87411H4.87444H4.87477H4.8751H4.87543H4.87576H4.87609H4.87642H4.87675H4.87708H4.87741H4.87774H4.87806H4.87839H4.87872H4.87905H4.87938H4.87971H4.88004H4.88037H4.8807H4.88103H4.88136H4.88169H4.88202H4.88234H4.88267H4.883H4.88333H4.88366H4.88399H4.88432H4.88465H4.88498H4.88531H4.88564H4.88597H4.88629H4.88662H4.88695H4.88728H4.88761H4.88794H4.88827H4.8886H4.88893H4.88926H4.88959H4.88992H4.89024H4.89057H4.8909H4.89123H4.89156H4.89189H4.89222H4.89255H4.89288H4.89321H4.89354H4.89387H4.89419H4.89452H4.89485H4.89518H4.89551H4.89584H4.89617H4.8965H4.89683H4.89716H4.89749H4.89782H4.89814H4.89847H4.8988H4.89913H4.89946H4.89979H4.90012H4.90045H4.90078H4.90111H4.90144H4.90177H4.90209H4.90242H4.90275H4.90308H4.90341H4.90374H4.90407H4.9044H4.90473H4.90506H4.90539H4.90572H4.90605H4.90637H4.9067H4.90703H4.90736H4.90769H4.90802H4.90835H4.90868H4.90901H4.90934H4.90967H4.91H4.91032H4.91065H4.91098H4.91131H4.91164H4.91197H4.9123H4.91263H4.91296H4.91329H4.91362H4.91395H4.91427H4.9146H4.91493H4.91526H4.91559H4.91592H4.91625H4.91658H4.91691H4.91724H4.91757H4.9179H4.91822H4.91855H4.91888H4.91921H4.91954H4.91987H4.9202H4.92053H4.92086H4.92119H4.92152H4.93742H4.95332H4.96922H4.98512H5.00102H5.01693H5.03283H5.04873H5.06463H5.08053H5.09643H5.11233H5.12824H5.14414H5.16004H5.17594H5.19184H5.20774H5.22365H5.23955H5.25545H5.27135H5.28725H5.30315H5.31905H5.33496H5.35086H5.36676H5.38266H5.39856H5.41446H5.43036H5.44627H5.46217H5.47807H5.49397H5.50987H5.52577H5.54168H5.55758H5.57348H5.58938H5.60528H5.62118H5.63708H5.65299H5.66889H5.68479H5.70069H5.71659H5.73249H5.74839H5.7643H5.7802H5.7961H5.812H5.8279H5.8438H5.85971H5.87561H5.89151H5.90741H5.92331H5.93921H5.95511H5.97102H5.98692H6.00282H6.01872H6.03462H6.05052H6.06643H6.08233H6.09823H6.11413H6.13003H6.14593H6.16183H6.17774H6.19364H6.20954H6.22544H6.24134H6.25724H6.27314H6.28905H6.30495H6.32085H6.33675H6.35265H6.36855H6.38446H6.40036H6.41626H6.43216H6.44806H6.46396H6.47986H6.49577H6.51167H6.52757H6.54347H6.55937H6.57527H6.59118H6.60708H6.62298H6.63888H6.65478H6.67068H6.68658H6.70249H6.71839H6.73429H6.75019H6.76609H6.78199H6.79789H6.8138H6.8297H6.8456H6.8615H6.8774H6.8933H6.90921H6.92511H6.94101H6.95691H6.97281H6.98871H7.00461H7.02052H7.03642H7.05232H7.06822H7.08412H7.10002H7.11592H7.13183H7.14773H7.16363H7.17953H7.19543H7.21133H7.22724H7.24314H7.25904H7.27494H7.29084H7.30674H7.32264H7.33855H7.35445H7.37035H7.38625H7.40215H7.41805H7.43395H7.44986H7.46576H7.48166H7.49756H7.51346H7.52936H7.54527H7.56117H7.57707H7.59297H7.60887H7.62477H7.64067H7.65658H7.67248H7.68838H7.70428H7.72018H7.73608H7.75199H7.76789H7.78379H7.79969H7.81559H7.83149H7.84739H7.8633H7.8792H7.8951H7.911H7.9269H7.9428H7.9587H7.97461H7.99051H8.00641H8.02231H8.03821H8.05411H8.07002H8.08592H8.10182H8.11772H8.13362H8.14952H8.16542H8.18133H8.19723H8.21313H8.22903H8.24493H8.26083H8.27674H8.29264H8.30854H8.32444H8.34034H8.35624H8.37214H8.38805H8.40395H8.41985H8.43575H8.45165H8.46755H8.48345H8.49936H8.51526H8.53116H8.54706H8.56296H8.57886H8.59477H8.61067H8.62657H8.64247H8.65837H8.67427H8.69017H8.70608H8.72198H8.73788H8.75378H8.76968H8.78558H8.80149H8.81739H8.83329H8.84919H8.86509H8.88099H8.89689H8.9128H8.9287H8.9446H8.9605H8.9764H8.9923H9.0082H9.02411H9.04001H9.05591H9.07181H9.08771H9.10361H9.11951H9.13542H9.15132H9.16722H9.18312H9.19902H9.21492H9.23083H9.24673H9.26263H9.27853H9.29443H9.31033H9.32623H9.34214H9.35804H9.37394H9.38984H9.40574H9.42164H9.43755H9.45345H9.46935H9.48525H9.50115H9.51705H9.53295H9.54886H9.56476H9.58066H9.59656H9.61246H9.62836H9.64426H9.66017H9.67607H9.69197H9.70787H9.72377H9.73967H9.75558H9.77148H9.78738H9.80328H9.81918H9.83508H9.85098H9.86689H9.88279H9.89869H9.91459H9.93049H9.94639H9.9623H9.9782H9.9941H10.01H10.0259H10.0418H10.0577H10.0736H10.0895H10.1054H10.1213H10.1372H10.1531H10.169H10.1849H10.2008H10.2167H10.2326H10.2485H10.2644H10.2803H10.2962H10.3121H10.328H10.3439H10.3598H10.3757H10.3916H10.4075H10.4234H10.4393H10.4552H10.4711H10.487H10.5029H10.5188H10.5347H10.5507H10.5666H10.5825H10.5984H10.6143H10.6302H10.6461H10.662H10.6779H10.6938H10.7097H10.7256H10.7415H10.7574H10.7733H10.7892H10.8051H10.821H10.8369H10.8528H10.8687H10.8846H10.9005H10.9164H10.9323H10.9482H10.9641H10.98H10.9959H11.0118H11.0277H11.0436H11.0595H11.0754H11.0913H11.1072H11.1231H11.139H11.1549H11.1708H11.1867H11.2026H11.2185H11.2344H11.2503H11.2662H11.2821H11.298H11.3139H11.3298H11.3457H11.3616H11.3775H11.3934H11.4093H11.4252H11.4411H11.457H11.4729H11.4888H11.5047H11.5206H11.5365H11.5524H11.5683H11.5842H11.6002H11.6161H11.632H11.6479H11.6638H11.6797H11.6956H11.7115H11.7274H11.7433H11.7592H11.7751H11.791H11.8069H11.8228H11.8387H11.8546H11.8705H11.8864H11.9023H11.9182H11.9341H11.95H11.9659H11.9818H11.9977H12.0136H12.0295H12.0454H12.0613H12.0772H12.0931H12.109H12.1249H12.1408H12.1567H12.1726H12.1885H12.2044H12.2203H12.2362H12.2521H12.268H12.2839H12.2998H12.3157H12.3316H12.3475H12.3634H12.3793H12.3952H12.4111H12.427H12.4429H12.4588H12.4747H12.4906H12.5065H12.5224H12.5383H12.5542H12.5701H12.586H12.6019H12.6178H12.6337H12.6497H12.6656H12.6815H12.6974H12.7133H12.7292H12.7451H12.761H12.7769H12.7928H12.8087H12.8246H12.8405H12.8564H12.8723H12.8882H12.9041H12.92H12.9359H12.9518H12.9677H12.9836H12.9995H13.0154H13.0313H13.0472H13.0631C13.0809 14.5826 13.1033 14.5829 13.1279 14.5833C13.1773 14.584 13.2357 14.5848 13.2853 14.5835C13.3657 14.5813 13.4633 14.5735 13.5583 14.5433C13.6571 14.5118 13.761 14.4534 13.8385 14.3469C13.915 14.2418 13.9478 14.1144 13.9512 13.977C13.9546 13.8403 13.9287 13.7113 13.8573 13.6026C13.7846 13.4918 13.6825 13.4291 13.5838 13.3945C13.4893 13.3613 13.3914 13.3513 13.3102 13.3478C13.252 13.3453 13.1888 13.3458 13.1357 13.3463C13.1167 13.3465 13.099 13.3466 13.0833 13.3466H13.0754H13.0675H13.0596H13.0517H13.0438H13.0359H13.028H13.0201H13.0122H13.0043H12.9964H12.9885H12.9806H12.9727H12.9648H12.9569H12.949H12.9411H12.9332H12.9253H12.9174H12.9095H12.9016H12.8937H12.8858H12.8779H12.87H12.8621H12.8542H12.8463H12.8384H12.8305H12.8226H12.8147H12.8068H12.7989H12.791H12.7831H12.7752H12.7673H12.7594H12.7515H12.7436H12.7357H12.7278H12.7199H12.712H12.7041H12.6962H12.6883H12.6804H12.6725H12.6646H12.6567H12.6488H12.6409H12.633H12.6251H12.6172H12.6093H12.6014H12.5935H12.5856H12.5777H12.5698H12.5619H12.554H12.5461H12.5382H12.5303H12.5224H12.5145H12.5066H12.4987H12.4908H12.4829H12.475H12.4671H12.4592H12.4513H12.4434H12.4355H12.4276H12.4197H12.4118H12.4039H12.396H12.3881H12.3802H12.3723H12.3644H12.3565H12.3486H12.3407H12.3328H12.3249H12.317H12.3091H12.3012H12.2933H12.2854H12.2775H12.2696H12.2617H12.2538H12.2459H12.238H12.2301H12.2222H12.2143H12.2064H12.1985H12.1906H12.1827H12.1748H12.1669H12.159H12.1511H12.1432H12.1353H12.1274H12.1195H12.1116H12.1037H12.0958H12.0879H12.08H12.0721H12.0642H12.0563H12.0484H12.0405H12.0326H12.0247H12.0168H12.0089H12.001H11.9931H11.9852H11.9773H11.9694H11.9615H11.9536H11.9457H11.9378H11.9299H11.922H11.9141H11.9062H11.8983H11.8904H11.8825H11.8746H11.8667H11.8588H11.8509H11.843H11.8351H11.8272H11.8193H11.8114H11.8035H11.7956H11.7877H11.7798H11.7719H11.764H11.7561H11.7482H11.7403H11.7324H11.7245H11.7166H11.7087H11.7008H11.6929H11.685H11.6771H11.6692H11.6613H11.6534H11.6455H11.6376H11.6297H11.6218H11.6139H11.606H11.5981H11.5902H11.5823H11.5744H11.5665H11.5586H11.5507H11.5428H11.5349H11.527H11.5191H11.5112H11.5033H11.4954H11.4875H11.4796H11.4717H11.4638H11.4559H11.448H11.4401H11.4322H11.4243H11.4164H11.4085H11.4006H11.3927H11.3848H11.3769H11.369H11.3611H11.3532H11.3453H11.3374H11.3295H11.3216H11.3137H11.3058H11.2979H11.29H11.2821H11.2741H11.2662H11.2583H11.2504H11.2425H11.2346H11.2267H11.2188H11.2109H11.203H11.1951H11.1872H11.1793H11.1714H11.1635H11.1556H11.1477H11.1398H11.1319H11.124H11.1161H11.1082H11.1003H11.0924H11.0845H11.0766H11.0687H11.0608H11.0529H11.045H11.0371H11.0292H11.0213H11.0134H11.0055H10.9976H10.9897H10.9818H10.9739H10.966H10.9581H10.9502H10.9423H10.9344H10.9265H10.9186H10.9107H10.9028H10.8949H10.887H10.8791H10.8712H10.8633H10.8554H10.8475H10.8396H10.8317H10.8238H10.8159H10.808H10.8001H10.7922H10.7843H10.7764H10.7685H10.7606H10.7527H10.7448H10.7369H10.729H10.7211H10.7132H10.7053H10.6974H10.6895H10.6816H10.6737H10.6658H10.6579H10.65H10.6421H10.6342H10.6263H10.6184H10.6105H10.6026H10.5947H10.5868H10.5789H10.571H10.5631H10.5552H10.5473H10.5394H10.5315H10.5236H10.5157H10.5078H10.4999H10.492H10.4841H10.4762H10.4683H10.4604H10.4525H10.4446H10.4367H10.4288H10.4209H10.413H10.4051H10.3972H10.3893H10.3814H10.3735H10.3656H10.3577H10.3498H10.3419H10.334H10.3261H10.3182H10.3103H10.3024H10.2945H10.2866H10.2787H10.2708H10.2629H10.255H10.2471H10.2392H10.2313H10.2234H10.2155H10.2076H10.1997H10.1918H10.1839H10.176H10.1681H10.1602H10.1523H10.1444H10.1365H10.1286H10.1207H10.1128H10.1049H10.097H10.0891H10.0812H10.0733H10.0654H10.0575H10.0496H10.0417H10.0338H10.0259H10.018H10.0101H10.0022H9.9943H9.9864H9.9785H9.9706H9.9627H9.9548H9.9469H9.939H9.9311H9.9232H9.9153H9.9074H9.8995H9.8916H9.8837H9.8758H9.8679H9.86H9.8521H9.8442H9.8363H9.8284H9.8205H9.8126H9.8047H9.7968H9.7889H9.781H9.7731H9.7652H9.7573H9.7494H9.7415H9.7336H9.7257H9.71779H9.70989H9.70199H9.69409H9.68619H9.67829H9.67039H9.66249H9.65459H9.64669H9.63879H9.63089H9.62299H9.61509H9.60719H9.59929H9.59139H9.58349H9.57559H9.56769H9.55979H9.55189H9.54399H9.53609H9.52819H9.52029H9.51239H9.50449H9.49659H9.48869H9.48079H9.47289H9.46499H9.45709H9.44919H9.44129H9.43338H9.42548H9.41758H9.40968H9.40178H9.39388H9.38598H9.37808H9.37018H9.36228H9.35438H9.34648H9.33858H9.33068H9.32278H9.31488H9.30698H9.29908H9.29118H9.28328H9.27538H9.26748H9.25958H9.25168H9.24378H9.23588H9.22798H9.22008H9.21218H9.20428H9.19638H9.18848H9.18058H9.17268H9.16477H9.15687H9.14897H9.14107H9.13317H9.12527H9.11737H9.10947H9.10157H9.09367H9.08577H9.07787H9.06997H9.06207H9.05417H9.04627H9.03837H4.7732C4.63506 13.3466 4.44782 13.3581 4.2923 13.4484C4.20833 13.4972 4.13381 13.5687 4.08372 13.6676C4.03463 13.7646 4.01646 13.8731 4.01995 13.9863L4.01995 13.9864C4.02697 14.212 4.13005 14.3804 4.29907 14.4776C4.44461 14.5614 4.61591 14.5783 4.74488 14.5824Z" fill="#FA8B02" stroke="#FA8B02" stroke-width="0.5"/>
<path d="M4.0252 9.44941L4.0252 9.44943C4.01962 9.58739 4.04341 9.71813 4.11369 9.82867C4.18559 9.94178 4.2883 10.0058 4.38759 10.0409C4.48251 10.0744 4.58082 10.0841 4.66149 10.0874C4.71779 10.0897 4.77974 10.0891 4.83131 10.0886C4.85107 10.0884 4.8693 10.0882 4.88511 10.0882H4.89296H4.90082H4.90867H4.91653H4.92438H4.93224H4.94009H4.94795H4.9558H4.96366H4.97152H4.97937H4.98723H4.99508H5.00294H5.0108H5.01866H5.02651H5.03437H5.04223H5.05009H5.05794H5.0658H5.07366H5.08152H5.08938H5.09724H5.10509H5.11295H5.12081H5.12867H5.13653H5.14439H5.15225H5.16011H5.16797H5.17583H5.18369H5.19156H5.19942H5.20728H5.21514H5.223H5.23086H5.23872H5.24659H5.25445H5.26231H5.27017H5.27804H5.2859H5.29376H5.30162H5.30949H5.31735H5.32522H5.33308H5.34094H5.34881H5.35667H5.36454H5.3724H5.38027H5.38813H5.396H5.40386H5.41173H5.41959H5.42746H5.43532H5.44319H5.45106H5.45892H5.46679H5.47465H5.48252H5.49039H5.49826H5.50612H5.51399H5.52186H5.52973H5.53759H5.54546H5.55333H5.5612H5.56907H5.57693H5.5848H5.59267H5.60054H5.60841H5.61628H5.62415H5.63202H5.63989H5.64776H5.65563H5.6635H5.67137H5.67924H5.68711H5.69498H5.70285H5.71072H5.71859H5.72647H5.73434H5.74221H5.75008H5.75795H5.76582H5.7737H5.78157H5.78944H5.79731H5.80519H5.81306H5.82093H5.82881H5.83668H5.84455H5.85243H5.8603H5.86817H5.87605H5.88392H5.8918H5.89967H5.90755H5.91542H5.9233H5.93117H5.93905H5.94692H5.9548H5.96267H5.97055H5.97842H5.9863H5.99417H6.00205H6.00993H6.0178H6.02568H6.03356H6.04143H6.04931H6.05719H6.06506H6.07294H6.08082H6.0887H6.09657H6.10445H6.11233H6.12021H6.12809H6.13597H6.14384H6.15172H6.1596H6.16748H6.17536H6.18324H6.19112H6.199H6.20688H6.21476H6.22263H6.23051H6.23839H6.24627H6.25415H6.26203H6.26992H6.2778H6.28568H6.29356H6.30144H6.30932H6.3172H6.32508H6.33296H6.34084H6.34873H6.35661H6.36449H6.37237H6.38025H6.38813H6.39602H6.4039H6.41178H6.41966H6.42755H6.43543H6.44331H6.4512H6.45908H6.46696H6.47485H6.48273H6.49061H6.4985H6.50638H6.51426H6.52215H6.53003H6.53792H6.5458H6.55368H6.56157H6.56945H6.57734H6.58522H6.59311H6.60099H6.60888H6.61676H6.62465H6.63253H6.64042H6.64831H6.65619H6.66408H6.67196H6.67985H6.68774H6.69562H6.70351H6.71139H6.71928H6.72717H6.73505H6.74294H6.75083H6.75872H6.7666H6.77449H6.78238H6.79026H6.79815H6.80604H6.81393H6.82182H6.8297H6.83759H6.84548H6.85337H6.86126H6.86914H6.87703H6.88492H6.89281H6.9007H6.90859H6.91648H6.92436H6.93225H6.94014H6.94803H6.95592H6.96381H6.9717H6.97959H6.98748H6.99537H7.00326H7.01115H7.01904H7.02693H7.03482H7.04271H7.0506H7.05849H7.06638H7.07427H7.08216H7.09005H7.09794H7.10583H7.11373H7.12162H7.12951H7.1374H7.14529H7.15318H7.16107H7.16897H7.17686H7.18475H7.19264H7.20053H7.20842H7.21632H7.22421H7.2321H7.23999H7.24789H7.25578H7.26367H7.27156H7.27946H7.28735H7.29524H7.30313H7.31103H7.31892H7.32681H7.33471H7.3426H7.35049H7.35839H7.36628H7.37417H7.38207H7.38996H7.39785H7.40575H7.41364H7.42154H7.42943H7.43732H7.44522H7.45311H7.46101H7.4689H7.47679H7.48469H7.49258H7.50048H7.50837H7.51627H7.52416H7.53206H7.53995H7.54785H7.55574H7.56364H7.57153H7.57943H7.58732H7.59522H7.60311H7.61101H7.6189H7.6268H7.63469H7.64259H7.65049H7.65838H7.66628H7.67417H7.68207H7.68997H7.69786H7.70576H7.71365H7.72155H7.72945H7.73734H7.74524H7.75313H7.76103H7.76893H7.77682H7.78472H7.79262H7.80051H7.80841H7.81631H7.8242H7.8321H7.84H7.8479H7.85579H7.86369H7.87159H7.87948H7.88738H7.89528H7.90318H7.91107H7.91897H7.92687H7.93477H7.94266H7.95056H7.95846H7.96636H7.97425H7.98215H7.99005H7.99795H8.00585H8.01374H8.02164H8.02954H8.03744H8.04534H8.05323H8.06113H8.06903H8.07693H8.08483H8.09272H8.10062H8.10852H8.11642H8.12432H8.13222H8.14012H8.14801H8.15591H8.16381H8.17171H8.17961H8.18751H8.19541H8.20331H8.2112H8.2191H8.227H8.2349H8.2428H8.2507H8.2586H8.2665H8.2744H8.28229H8.29019H8.29809H8.30599H8.31389H8.32179H8.32969H8.33759H8.34549H8.35339H8.36129H8.36919H8.37709H8.38499H8.39289H8.40078H8.40868H8.41658H8.42448H8.43238H8.44028H8.44818H8.45608H8.46398H8.47188H8.47978H8.48768H8.49558H8.50348H8.51138H8.51928H8.52718H8.53508H8.54298H8.55088H8.55878H8.56668H8.57458H8.58248H8.59038H8.59828H8.60618H8.61408H8.62198H8.62988H8.63778H8.64568H8.65358H8.66148H8.66938H8.67728H8.68518H8.69308H8.70098H8.70888H8.71678H8.72468H8.73258H8.74048H8.74838H8.75628H8.76418H8.77208H8.77998H8.78788H8.79578H8.80368H8.81158H8.81948H8.82738H8.83528H8.84318H8.85108H8.85898H8.86688H8.87478H8.88269H8.89059H8.89849H8.90639H8.91429H8.92219C10.3242 10.0882 11.7251 10.0904 13.1272 10.0938L13.1289 10.0938C13.1354 10.0938 13.1423 10.0938 13.1493 10.0937C13.267 10.0935 13.4537 10.0931 13.6097 10.0289C13.7015 9.99117 13.7944 9.92764 13.8605 9.82328C13.9258 9.72007 13.9505 9.59958 13.9474 9.47248C13.9443 9.34622 13.9146 9.22824 13.8469 9.12851C13.7783 9.02753 13.6853 8.96657 13.5932 8.93066C13.4406 8.87121 13.2592 8.87192 13.142 8.87237C13.1323 8.87241 13.1231 8.87245 13.1143 8.87245H4.87163C4.85929 8.87245 4.84569 8.87232 4.83101 8.87218C4.71953 8.87113 4.54625 8.86949 4.40075 8.91912C4.30864 8.95054 4.21158 9.00633 4.1378 9.1048C4.06419 9.20306 4.03037 9.32164 4.0252 9.44941ZM4.27499 9.45953L4.275 9.45953L4.27499 9.45953Z" fill="#FA8B02" stroke="#FA8B02" stroke-width="0.5"/>
<path d="M4.27402 7.20787L4.02466 7.19C4.01617 7.30846 4.03161 7.42351 4.0845 7.52571C4.13878 7.63058 4.22134 7.70038 4.30915 7.74441C4.46694 7.82353 4.65795 7.82529 4.77739 7.82529H4.78526H4.79314H4.80101H4.80888H4.81676H4.82463H4.83251H4.84038H4.84825H4.85613H4.864H4.87188H4.87975H4.88762H4.8955H4.90337H4.91125H4.91912H4.92699H4.93487H4.94274H4.95062H4.95849H4.96636H4.97424H4.98211H4.98998H4.99786H5.00573H5.01361H5.02148H5.02935H5.03723H5.0451H5.05298H5.06085H5.06872H5.0766H5.08447H5.09235H5.10022H5.10809H5.11597H5.12384H5.13172H5.13959H5.14746H5.15534H5.16321H5.17109H5.17896H5.18683H5.19471H5.20258H5.21046H5.21833H5.2262H5.23408H5.24195H5.24983H5.2577H5.26557H5.27345H5.28132H5.28919H5.29707H5.30494H5.31282H5.32069H5.32856H5.33644H5.34431H5.35219H5.36006H5.36793H5.37581H5.38368H5.39156H5.39943H5.4073H5.41518H5.42305H5.43093H5.4388H5.44667H5.45455H5.46242H5.4703H5.47817H5.48604H5.49392H5.50179H5.50967H5.51754H5.52541H5.53329H5.54116H5.54904H5.55691H5.56478H5.57266H5.58053H5.5884H5.59628H5.60415H5.61203H5.6199H5.62777H5.63565H5.64352H5.6514H5.65927H5.66714H5.67502H5.68289H5.69077H5.69864H5.70651H5.71439H5.72226H5.73014H5.73801H5.74588H5.75376H5.76163H5.76951H5.77738H5.78525H5.79313H5.801H5.80888H5.81675H5.82462H5.8325H5.84037H5.84825H5.85612H5.86399H5.87187H5.87974H5.88761H5.89549H5.90336H5.91124H5.91911H5.92698H5.93486H5.94273H5.95061H5.95848H5.96635H5.97423H5.9821H5.98998H5.99785H6.00572H6.0136H6.02147H6.02935H6.03722H6.04509H6.05297H6.06084H6.06872H6.07659H6.08446H6.09234H6.10021H6.10809H6.11596H6.12383H6.13171H6.13958H6.14745H6.15533H6.1632H6.17108H6.17895H6.18682H6.1947H6.20257H6.21045H6.21832H6.22619H6.23407H6.24194H6.24982H6.25769H6.26556H6.27344H6.28131H6.28919H6.29706H6.30493H6.31281H6.32068H6.32856H6.33643H6.3443H6.35218H6.36005H6.36793H6.3758H6.38367H6.39155H6.39942H6.4073H6.41517H6.42304H6.43092H6.43879H6.44666H6.45454H6.46241H6.47029H6.47816H6.48603H6.49391H6.50178H6.50966H6.51753H6.5254H6.53328H6.54115H6.54903H6.5569H6.56477H6.57265H6.58052H6.5884H6.59627H6.60414H6.61202H6.61989H6.62777H6.63564H6.64351H6.65139H6.65926H6.66714H6.67501H6.68288H6.69076H6.69863H6.70651H6.71438H6.72225H6.73013H6.738H6.74587H6.75375H6.76162H6.7695H6.77737H6.78524H6.79312H6.80099H6.80887H6.81674H6.82461H6.83249H6.84036H6.84824H6.85611H6.86398H6.87186H6.87973H6.88761H6.89548H6.90335H6.91123H6.9191H6.92698H6.93485H6.94272H6.9506H6.95847H6.96635H6.97422H6.98209H6.98997H6.99784H7.00572H7.01359H7.02146H7.02934H7.03721H7.04508H7.05296H7.06083H7.06871H7.07658H7.08445H7.09233H7.1002H7.10808H7.11595H7.12382H7.1317H7.13957H7.14745H7.15532H7.16319H7.17107H7.17894H7.18682H7.19469H7.20256H7.21044H7.21831H7.22619H7.23406H7.24193H7.24981H7.25768H7.26556H7.27343H7.2813H7.28918H7.29705H7.30492H7.3128H7.32067H7.32855H7.33642H7.34429H7.35217H7.36004H7.36792H7.37579H7.38366H7.39154H7.39941H7.40729H7.41516H7.42303H7.43091H7.43878H7.44666H7.45453H7.4624H7.47028H7.47815H7.48603H7.4939H7.50177H7.50965H7.51752H7.5254H7.53327H7.54114H7.54902H7.55689H7.56477H7.57264H7.58051H7.58839H7.59626H7.60413H7.61201H7.61988H7.62776H7.63563H7.6435H7.65138H7.65925H7.66713H7.675H7.68287H7.69075H7.69862H7.7065H7.71437H7.72224H7.73012H7.73799H7.74587H7.75374H7.76161H7.76949H7.77736H7.78524H7.79311H7.80098H7.80886H7.81673H7.82461H7.83248H7.84035H7.84823H7.8561H7.86398H7.87185H7.87972H7.8876H7.89547H7.90334H7.91122H7.91909H7.92697H7.93484H7.94271H7.95059H7.95846H7.96634H7.97421H7.98208H7.98996H7.99783H8.00571H8.01358H8.02145H8.02933H8.0372H8.04508H8.05295H8.06082H8.0687H8.07657H8.08445H8.09232H8.10019H8.10807H8.11594H8.12382H8.13169H8.13956H8.14744H8.15531H8.16318H8.17106H8.17893H8.18681H8.19468H8.20255H8.21043H8.2183H8.22618H8.23405H8.24192H8.2498H8.25767H8.26555H8.27342H8.28129H8.28917H8.29704H8.30492H8.31279H8.32066H8.32854H8.33641H8.34429H8.35216H8.36003H8.36791H8.37578H8.38366H8.39153H8.3994H8.40728H8.41515H8.42303H8.4309H8.43877H8.44665H8.45452H8.46239H8.47027H8.47814H8.48602H8.49389H8.50176H8.50964H8.51751H8.52539H8.53326H8.54113H8.54901H8.55688H8.56476H8.57263H8.5805H8.58838H8.59625H8.60413H8.612H8.61987H8.62775H8.63562H8.6435H8.65137H8.65924H8.66712H8.67499H8.68287H8.69074H8.69861H8.70649H8.71436H8.72224H8.73011H8.73798H8.74586H8.75373H8.7616H8.76948H8.77735H8.78523H8.7931H8.80097H8.80885C8.93261 7.82529 9.11981 7.82159 9.27681 7.74286C9.36302 7.69963 9.44393 7.63242 9.49991 7.53272C9.55481 7.43494 9.57575 7.32373 9.5734 7.20733C9.57105 7.09035 9.54517 6.97976 9.48537 6.88422C9.42455 6.78705 9.34039 6.72425 9.25347 6.68518C9.09768 6.61516 8.91311 6.61517 8.79613 6.61517L8.79312 6.61517L6.83244 6.61517L6.83175 6.61517L4.81906 6.62078C4.69282 6.61811 4.51152 6.61928 4.35485 6.68933C4.26929 6.72758 4.18663 6.78792 4.12453 6.87976C4.06301 6.97076 4.03221 7.07707 4.02458 7.19118L4.27402 7.20787ZM4.27402 7.20787C4.29537 6.88877 4.55941 6.86517 4.81671 6.87079L6.83244 6.86517H8.79312C9.04705 6.86517 9.31671 6.87753 9.32346 7.21236C9.3302 7.5472 9.06503 7.57529 8.80885 7.57529H4.77739C4.52346 7.57529 4.2493 7.55281 4.27402 7.20787Z" fill="#FA8B02" stroke="#FA8B02" stroke-width="0.5"/>
<path d="M18.3148 9.61122L18.3148 9.61122C18.3107 9.76372 18.2767 9.93765 18.1676 10.0767C18.0482 10.2288 17.8694 10.3011 17.6616 10.2937L17.6596 10.2936L17.6596 10.2936C17.4589 10.2848 17.2975 10.1973 17.1971 10.0457C17.1065 9.909 17.0835 9.74729 17.0834 9.61206M18.3148 9.61122L17.3334 9.61127M18.3148 9.61122L18.3149 9.60849C18.3187 9.37 18.3174 9.12828 18.3161 8.8897C18.3155 8.7719 18.3149 8.65486 18.3149 8.53936C18.3149 8.30446 18.3159 8.07001 18.3169 7.83365C18.3174 7.71319 18.3179 7.59224 18.3183 7.47048L18.3184 7.47048L18.3182 7.46238C18.3141 7.32278 18.2851 7.16306 18.1918 7.0297C18.0899 6.88419 17.9324 6.80003 17.7391 6.78867L17.7391 6.78862L17.7342 6.78842C17.5249 6.78028 17.343 6.85105 17.223 7.00611C17.1136 7.14738 17.0836 7.32342 17.0834 7.4756M18.3148 9.61122L17.3334 7.47644M17.0834 9.61206C17.0834 9.61179 17.0834 9.61153 17.0834 9.61127H17.3334M17.0834 9.61206C17.0835 9.61232 17.0835 9.61259 17.0835 9.61285L17.3334 9.61127M17.0834 9.61206C17.079 8.9014 17.079 8.18924 17.0834 7.4756M17.3334 9.61127C17.329 8.90116 17.329 8.18955 17.3334 7.47644M17.0834 7.4756C17.0834 7.47588 17.0834 7.47616 17.0834 7.47644H17.3334M17.0834 7.4756C17.0835 7.47535 17.0835 7.47511 17.0835 7.47486L17.3334 7.47644" fill="#FA8B02" stroke="#FA8B02" stroke-width="0.5"/>
<path d="M17.3342 11.6124L17.0842 11.61C17.0774 12.321 17.0774 13.0323 17.0842 13.744L17.0841 13.744L17.0842 13.7479C17.0875 13.879 17.1112 14.0403 17.2021 14.1761C17.304 14.3282 17.467 14.4144 17.6704 14.4196L17.6704 14.4197H17.6769C17.8855 14.4197 18.0627 14.3427 18.1788 14.1885C18.2852 14.0472 18.3153 13.8738 18.3156 13.7224C18.3194 13.4837 18.3181 13.2427 18.3168 13.0053C18.3162 12.8881 18.3156 12.7717 18.3156 12.6568L18.3201 11.6506H18.3201V11.6495C18.3201 11.5115 18.3033 11.339 18.2167 11.192C18.1182 11.025 17.9507 10.9254 17.7322 10.9134C17.5139 10.9013 17.3323 10.9829 17.2168 11.1425C17.1129 11.2859 17.0842 11.4627 17.0842 11.6124H17.3342ZM17.3342 11.6124C17.3274 12.3218 17.3274 13.0315 17.3342 13.7416L18.0701 11.6495C18.0701 11.4012 18.0038 11.1787 17.7184 11.163C17.433 11.1472 17.3342 11.3652 17.3342 11.6124Z" fill="#FA8B02" stroke="#FA8B02" stroke-width="0.5"/>
</svg>
