<svg width="92" height="92" viewBox="0 0 92 92" fill="none" xmlns="http://www.w3.org/2000/svg">
<path fill-rule="evenodd" clip-rule="evenodd" d="M46.0003 0.166687C20.6878 0.166687 0.166992 20.6875 0.166992 46C0.166992 71.3125 20.6878 91.8334 46.0003 91.8334C71.3128 91.8334 91.8337 71.3125 91.8337 46C91.8337 20.6875 71.3128 0.166687 46.0003 0.166687ZM65.867 38.25C66.2328 37.8319 66.5113 37.3448 66.6861 36.8174C66.8609 36.29 66.9284 35.733 66.8848 35.1791C66.8411 34.6253 66.6871 34.0857 66.4319 33.5922C66.1766 33.0987 65.8253 32.6613 65.3984 32.3056C64.9716 31.9499 64.478 31.6832 63.9466 31.5211C63.4151 31.359 62.8567 31.3049 62.304 31.3618C61.7513 31.4187 61.2156 31.5856 60.7284 31.8527C60.2412 32.1197 59.8123 32.4815 59.467 32.9167L41.5503 54.4125L32.2795 45.1375C31.4936 44.3785 30.4411 43.9586 29.3487 43.968C28.2562 43.9775 27.2111 44.4157 26.4386 45.1883C25.666 45.9608 25.2278 47.0059 25.2183 48.0983C25.2089 49.1908 25.6288 50.2433 26.3878 51.0292L38.8878 63.5292C39.2972 63.9383 39.7874 64.2577 40.3271 64.4669C40.8667 64.6762 41.4441 64.7707 42.0223 64.7444C42.6005 64.7181 43.1669 64.5717 43.6854 64.3144C44.2039 64.0571 44.663 63.6946 45.0337 63.25L65.867 38.25Z" fill="#FA8B02"/>
</svg>
