<svg width="49" height="60" viewBox="0 0 49 60" fill="none" xmlns="http://www.w3.org/2000/svg">
<path d="M34.8299 58.0564C35.6673 56.8381 36.4369 55.7999 37.1151 54.7042C37.3429 54.2826 37.6897 53.9374 38.1123 53.7115C38.5349 53.4856 39.0146 53.389 39.4917 53.4338C40.4464 53.4729 41.4064 53.3608 42.3612 53.4155C43.5273 53.4808 43.4595 53.0425 42.9769 52.2468C42.4369 51.3573 41.9751 50.4208 41.4769 49.5025C41.169 48.939 41.1038 48.3834 41.756 48.0547C42.3586 47.7495 42.7395 48.1616 43.0082 48.6521C43.736 49.9877 44.4899 51.3103 45.1604 52.6747C45.7604 53.8929 45.1264 54.9338 43.736 55.0486C42.6556 55.174 41.5669 55.2124 40.4804 55.1634C39.2725 55.0668 38.5421 55.5625 37.9786 56.5616C37.5534 57.3155 37.029 58.0173 36.5308 58.7268C35.3177 60.4512 34.0891 60.399 33.0821 58.5573C31.1856 55.0877 29.2864 51.6181 27.4421 48.1225C26.9856 47.2538 26.5917 46.706 25.5064 47.246C25.1875 47.3966 24.8387 47.4734 24.486 47.4707C24.1332 47.468 23.7857 47.3858 23.469 47.2303C22.4464 46.7295 22.0656 47.2068 21.6221 48.0521C19.796 51.5138 17.9177 54.9416 16.0525 58.3773C14.9256 60.4642 13.509 60.6312 12.4499 58.5468C11.0412 55.7764 9.02731 54.8242 6.01687 55.0355C3.63774 55.2025 3.09253 54.0573 4.24557 51.9338C5.9847 48.7251 7.72383 45.5164 9.46296 42.3077C10.2586 40.8364 10.0317 39.7851 8.61514 38.799C7.88421 38.3284 7.11852 37.9142 6.3247 37.5599C4.27427 36.5608 3.12383 34.9721 3.41861 32.6634C3.72122 30.2738 3.12644 28.2468 1.68905 26.3321C0.400353 24.6181 0.416005 22.7164 1.70992 21.0051C2.40986 20.1197 2.92231 19.101 3.21606 18.0112C3.50981 16.9214 3.57873 15.7833 3.41861 14.666C3.14209 12.4225 4.20122 10.7712 6.26209 9.88684C8.27601 9.02337 9.74992 7.72945 10.5899 5.65032C11.5421 3.3025 13.4125 2.27467 15.9064 2.62163C16.8721 2.77076 17.8582 2.71645 18.8016 2.46218C19.745 2.20792 20.6248 1.7593 21.3847 1.1451C23.4325 -0.420113 25.5847 -0.420113 27.6273 1.1451C28.4083 1.76733 29.3105 2.21979 30.2762 2.47358C31.242 2.72737 32.25 2.7769 33.236 2.61902C35.6177 2.30597 37.436 3.28423 38.3595 5.53815C39.2204 7.64076 40.6786 9.01293 42.7499 9.88945C44.8212 10.766 45.8804 12.4251 45.596 14.666C45.4376 15.7826 45.5071 16.9198 45.8003 18.0089C46.0935 19.098 46.6044 20.1163 47.3021 21.0025C48.6299 22.7712 48.5804 24.6912 47.2604 26.4442C45.8777 28.2703 45.296 30.2321 45.596 32.5329C45.9143 34.9486 44.7351 36.5921 42.5777 37.6277C41.3777 38.2042 40.0969 38.6712 39.356 39.9468C38.9673 40.6173 38.8604 41.1651 39.2934 41.8564C39.8464 42.7381 40.303 43.6825 40.7934 44.6008C41.0934 45.1616 41.1534 45.7329 40.4934 46.046C39.896 46.3303 39.523 45.9208 39.249 45.4251C39.1656 45.2738 39.0873 45.1173 38.9882 44.966C38.6412 44.366 38.4273 43.5103 37.9056 43.2364C37.3056 42.9234 36.9899 43.9225 36.4447 44.2173C35.1404 44.9268 33.7525 44.8225 32.3673 44.739C31.1334 44.666 29.9334 44.6764 28.856 45.4147C28.4673 45.6755 28.1569 45.8842 28.4621 46.4373C30.5699 50.2408 32.6438 54.0521 34.8299 58.0564ZM16.663 4.42423C14.0543 3.76684 12.5856 4.96945 11.7064 7.2938C10.9864 9.20597 9.49687 10.3773 7.65514 11.1129C5.74557 11.8773 4.86383 13.1816 5.1847 15.2868C5.36777 16.3581 5.31461 17.4564 5.02893 18.5049C4.74325 19.5535 4.23195 20.527 3.53079 21.3573C2.28122 22.886 2.27079 24.4564 3.51774 25.9825C4.22389 26.8139 4.73969 27.7897 5.02899 28.8415C5.3183 29.8933 5.37411 30.9956 5.19253 32.0712C4.88209 34.1581 5.68818 35.4808 7.6447 36.2451C8.63219 36.5974 9.52927 37.1643 10.2713 37.905C11.0134 38.6457 11.5819 39.5417 11.936 40.5286C12.6638 42.4877 14.023 43.3121 16.1099 42.9964C17.1629 42.8106 18.2437 42.8575 19.2766 43.1337C20.3095 43.41 21.2694 43.9089 22.0891 44.5955C23.696 45.8999 25.3291 45.9208 26.9438 44.6086C27.7615 43.92 28.72 43.4186 29.752 43.1396C30.784 42.8607 31.8645 42.8109 32.9177 42.9938C34.9786 43.3095 36.3586 42.5164 37.0917 40.5495C37.4444 39.5619 38.0115 38.6648 38.7521 37.9224C39.4927 37.1799 40.3885 36.6107 41.3751 36.2555C43.3186 35.5068 44.1586 34.1895 43.8456 32.1025C43.6621 31.0268 43.7161 29.9241 44.0036 28.8714C44.2911 27.8188 44.8052 26.8417 45.5099 26.0086C46.7517 24.4903 46.7725 22.9199 45.5099 21.386C44.8026 20.5547 44.2861 19.5785 43.9968 18.5261C43.7074 17.4737 43.6523 16.3707 43.8351 15.2947C44.1534 13.2077 43.3134 11.8642 41.3856 11.1208C40.3821 10.7506 39.472 10.1649 38.7193 9.40503C37.9666 8.64513 37.3896 7.72946 37.029 6.7225C36.3299 4.89641 35.0412 4.07989 33.0638 4.37467C30.7551 4.69554 28.6473 4.19206 26.8212 2.7051C25.2247 1.40076 23.6908 1.51815 22.0943 2.75989C20.4977 4.00163 18.7343 4.73467 16.663 4.42423ZM14.1977 58.0486C16.3708 54.0703 18.4212 50.2981 20.4977 46.5416C20.8082 45.9755 20.6125 45.7225 20.143 45.4042C18.8386 44.5225 17.4064 44.7051 15.969 44.7781C14.3699 44.8564 12.8099 44.7781 11.6804 43.4242C11.2134 42.8634 10.9969 43.1634 10.7569 43.5964C9.11861 46.6103 7.48209 49.6208 5.84731 52.6277C5.53948 53.1938 5.67774 53.4103 6.31166 53.4103C7.39687 53.4103 8.4847 53.4834 9.56731 53.4442C10.6499 53.4051 11.3647 53.8408 11.9151 54.7486C12.5882 55.7921 13.3369 56.8016 14.1977 58.0486Z" fill="#FA8B02"/>
<path d="M24.6743 5.50162C29.4483 5.5688 34.0048 7.50915 37.3615 10.9044C40.7182 14.2997 42.6064 18.878 42.6191 23.6524C42.6317 28.4269 40.7678 33.0151 37.4292 36.4281C34.0905 39.8412 29.5444 41.8056 24.7709 41.8981C11.4665 42.1303 2.33608 28.0042 8.02304 15.9938C8.17173 15.6781 8.32825 15.3677 8.50304 15.0677C8.84738 14.4729 9.16825 13.6538 10.0474 14.1625C10.8456 14.6242 10.3448 15.2894 10.0474 15.8634C7.75173 20.366 7.40738 24.9938 9.24391 29.7234C11.8526 36.4799 18.8961 40.7764 26.1404 40.0486C33.3848 39.3208 39.4448 33.7094 40.6735 26.5903C41.9074 19.4294 38.55 12.5999 32.0648 9.11206C26.1013 5.89032 18.4239 6.94945 13.2822 11.6947C13.0672 11.9099 12.838 12.1103 12.5961 12.2947C12.4284 12.4177 12.2212 12.4745 12.0142 12.4544C11.8072 12.4342 11.6149 12.3384 11.4741 12.1853C11.3333 12.0323 11.2539 11.8327 11.251 11.6247C11.2482 11.4167 11.3221 11.215 11.4587 11.0581C11.9641 10.5205 12.5054 10.0176 13.0787 9.55293C16.47 6.80336 20.3439 5.4938 24.6743 5.50162Z" fill="#FA8B02"/>
<path d="M15.8803 33.4069C16.1568 31.7243 16.4203 29.919 16.7595 28.1243C16.8364 27.8338 16.8281 27.5273 16.7356 27.2415C16.6431 26.9556 16.4703 26.7024 16.2377 26.5121C15.056 25.4217 13.929 24.2738 12.7655 23.1651C12.0142 22.4503 11.6021 21.6416 11.9621 20.5982C12.309 19.6043 13.1099 19.2625 14.0803 19.1347C15.5855 18.9364 17.0829 18.6495 18.5934 18.4903C19.4647 18.399 20.0073 18.0651 20.3725 17.2408C21.0221 15.7721 21.7786 14.353 22.4855 12.9077C22.9029 12.0573 23.5629 11.5121 24.5177 11.5121C25.4725 11.5121 26.1325 12.0573 26.5499 12.9103C27.2568 14.353 28.016 15.7799 28.6629 17.2434C29.0281 18.073 29.5786 18.3912 30.4447 18.4877C32.0386 18.6651 33.6221 18.9547 35.2134 19.1817C36.1055 19.3069 36.7786 19.7321 37.0708 20.6008C37.3916 21.5217 37.1255 22.3147 36.4473 22.9773C35.2368 24.1643 34.0368 25.3617 32.7951 26.5173C32.5626 26.7076 32.3897 26.9608 32.2972 27.2467C32.2047 27.5326 32.1964 27.839 32.2734 28.1295C32.576 29.6634 32.7951 31.2156 33.056 32.7547C33.2412 33.7982 33.2177 34.7712 32.2734 35.4521C31.3708 36.0886 30.4682 35.8695 29.5734 35.3869C28.1568 34.6251 26.7195 33.9051 25.3134 33.1251C25.0793 32.9767 24.8079 32.8978 24.5308 32.8978C24.2536 32.8978 23.9822 32.9767 23.7481 33.1251C22.2273 33.9599 20.7012 34.7973 19.1308 35.5434C17.396 36.3599 15.8334 35.3451 15.8803 33.4069ZM17.7064 33.1277C17.5368 34.1399 17.9673 34.1712 18.7186 33.7721C20.1742 32.9895 21.656 32.2643 23.0986 31.4608C23.525 31.1973 24.0164 31.0577 24.5177 31.0577C25.019 31.0577 25.5104 31.1973 25.9368 31.4608C27.2647 32.199 28.6186 32.8903 29.9725 33.5843C30.3455 33.7747 30.7551 34.2156 31.1516 33.939C31.6029 33.6208 31.3003 33.0443 31.2325 32.5982C31.0055 31.0956 30.7525 29.5956 30.4499 28.1034C30.3369 27.6376 30.3553 27.1495 30.5031 26.6936C30.651 26.2376 30.9224 25.8316 31.2873 25.5208C32.5238 24.3625 33.7212 23.173 34.9395 21.9703C35.1534 21.7617 35.4612 21.5425 35.3334 21.2086C35.2055 20.8747 34.8612 20.8799 34.5508 20.8356C32.9203 20.593 31.2925 20.293 29.6542 20.113C28.4855 19.9851 27.7629 19.4295 27.2829 18.373C26.5995 16.8703 25.8299 15.4095 25.0916 13.9382C24.9612 13.6773 24.8803 13.3251 24.4995 13.3303C24.1186 13.3356 24.0455 13.6851 23.9151 13.9486C23.1325 15.5138 22.3629 17.0608 21.609 18.626C21.4365 19.0264 21.1595 19.373 20.807 19.6295C20.4545 19.8861 20.0396 20.0431 19.6055 20.0843C17.9334 20.3138 16.2612 20.5747 14.5864 20.8356C14.2447 20.8851 13.8195 20.8356 13.6916 21.2295C13.5638 21.6234 13.9525 21.8425 14.1847 22.0799C15.2673 23.1495 16.3238 24.2477 17.4586 25.2573C18.4342 26.1234 18.8099 27.0834 18.5308 28.3877C18.1916 29.9477 17.9751 31.5443 17.7064 33.1277Z" fill="#FA8B02"/>
</svg>
